<svg viewBox="0 0 2000 1000" xmlns="http://www.w3.org/2000/svg"><mask id="b" x="0" y="0" width="2000" height="1000"><path fill="url(#a)" d="M0 0h2000v1000H0z"/></mask><path fill="#00000000" d="M0 0h2000v1000H0z"/><g style="transform-origin:center center" mask="url(#b)"><path stroke="#4c4e72" stroke-width="1.14942" fill="#4c4e7266" d="m99.772 0 49.771 28.736v57.47l-49.771 28.737L50 86.207V28.736Z"/><path stroke="#4c4e72" stroke-width="1.14942" fill="none" d="m199.772 0 49.771 28.736v57.47l-49.771 28.737L150 86.207V28.736Z"/><path stroke="#4c4e72" stroke-width="1.14942" fill="#4c4e727a" d="m299.772 0 49.771 28.736v57.47l-49.771 28.737L250 86.207V28.736Z"/><path stroke="#4c4e72" stroke-width="1.14942" fill="none" d="m399.772 0 49.771 28.736v57.47l-49.771 28.737L350 86.207V28.736ZM499.772 0l49.771 28.736v57.47l-49.771 28.737L450 86.207V28.736ZM599.772 0l49.771 28.736v57.47l-49.771 28.737L550 86.207V28.736ZM699.772 0l49.771 28.736v57.47l-49.771 28.737L650 86.207V28.736ZM799.772 0l49.771 28.736v57.47l-49.771 28.737L750 86.207V28.736Z"/><path stroke="#4c4e72" stroke-width="1.14942" fill="#4c4e725f" d="m899.772 0 49.771 28.736v57.47l-49.771 28.737L850 86.207V28.736Z"/><path stroke="#4c4e72" stroke-width="1.14942" fill="#4c4e72d2" d="m999.772 0 49.771 28.736v57.47l-49.771 28.737L950 86.207V28.736Z"/><path stroke="#4c4e72" stroke-width="1.14942" fill="none" d="m1099.772 0 49.771 28.736v57.47l-49.771 28.737L1050 86.207V28.736Z"/><path stroke="#4c4e72" stroke-width="1.14942" fill="#4c4e72fa" d="m1199.772 0 49.771 28.736v57.47l-49.771 28.737L1150 86.207V28.736Z"/><path stroke="#4c4e72" stroke-width="1.14942" fill="none" d="m1299.772 0 49.771 28.736v57.47l-49.771 28.737L1250 86.207V28.736ZM1399.772 0l49.771 28.736v57.47l-49.771 28.737L1350 86.207V28.736ZM1499.772 0l49.771 28.736v57.47l-49.771 28.737L1450 86.207V28.736ZM1599.772 0l49.771 28.736v57.47l-49.771 28.737L1550 86.207V28.736Z"/><path stroke="#4c4e72" stroke-width="1.14942" fill="#4c4e72de" d="m1699.772 0 49.771 28.736v57.47l-49.771 28.737L1650 86.207V28.736Z"/><path stroke="#4c4e72" stroke-width="1.14942" fill="none" d="m1799.772 0 49.771 28.736v57.47l-49.771 28.737L1750 86.207V28.736ZM1899.772 0l49.771 28.736v57.47l-49.771 28.737L1850 86.207V28.736ZM1999.772 0l49.771 28.736v57.47l-49.771 28.737L1950 86.207V28.736ZM49.772 86.207l49.771 28.736v57.47L49.772 201.15 0 172.414v-57.471ZM149.772 86.207l49.771 28.736v57.47l-49.771 28.736L100 172.414v-57.471ZM249.772 86.207l49.771 28.736v57.47l-49.771 28.736L200 172.414v-57.471Z"/><path stroke="#4c4e72" stroke-width="1.14942" fill="#4c4e7244" d="m349.772 86.207 49.771 28.736v57.47l-49.771 28.736L300 172.414v-57.471Z"/><path stroke="#4c4e72" stroke-width="1.14942" fill="none" d="m449.772 86.207 49.771 28.736v57.47l-49.771 28.736L400 172.414v-57.471Z"/><path stroke="#4c4e72" stroke-width="1.14942" fill="#4c4e720c" d="m549.772 86.207 49.771 28.736v57.47l-49.771 28.736L500 172.414v-57.471Z"/><path stroke="#4c4e72" stroke-width="1.14942" fill="none" d="m649.772 86.207 49.771 28.736v57.47l-49.771 28.736L600 172.414v-57.471ZM749.772 86.207l49.771 28.736v57.47l-49.771 28.736L700 172.414v-57.471ZM849.772 86.207l49.771 28.736v57.47l-49.771 28.736L800 172.414v-57.471ZM949.772 86.207l49.771 28.736v57.47l-49.771 28.736L900 172.414v-57.471ZM1049.772 86.207l49.771 28.736v57.47l-49.771 28.736L1000 172.414v-57.471ZM1149.772 86.207l49.771 28.736v57.47l-49.771 28.736L1100 172.414v-57.471ZM1249.772 86.207l49.771 28.736v57.47l-49.771 28.736L1200 172.414v-57.471ZM1349.772 86.207l49.771 28.736v57.47l-49.771 28.736L1300 172.414v-57.471Z"/><path stroke="#4c4e72" stroke-width="1.14942" fill="#4c4e7244" d="m1449.772 86.207 49.771 28.736v57.47l-49.771 28.736L1400 172.414v-57.471Z"/><path stroke="#4c4e72" stroke-width="1.14942" fill="none" d="m1549.772 86.207 49.771 28.736v57.47l-49.771 28.736L1500 172.414v-57.471ZM1649.772 86.207l49.771 28.736v57.47l-49.771 28.736L1600 172.414v-57.471Z"/><path stroke="#4c4e72" stroke-width="1.14942" fill="#4c4e72b3" d="m1749.772 86.207 49.771 28.736v57.47l-49.771 28.736L1700 172.414v-57.471Z"/><path stroke="#4c4e72" stroke-width="1.14942" fill="none" d="m1849.772 86.207 49.771 28.736v57.47l-49.771 28.736L1800 172.414v-57.471ZM1949.772 86.207l49.771 28.736v57.47l-49.771 28.736L1900 172.414v-57.471Z"/><path stroke="#4c4e72" stroke-width="1.14942" fill="#4c4e7298" d="m99.772 172.414 49.771 28.735v57.472l-49.771 28.735L50 258.621v-57.472Z"/><path stroke="#4c4e72" stroke-width="1.14942" fill="none" d="m199.772 172.414 49.771 28.735v57.472l-49.771 28.735L150 258.621v-57.472Z"/><path stroke="#4c4e72" stroke-width="1.14942" fill="#4c4e7232" d="m299.772 172.414 49.771 28.735v57.472l-49.771 28.735L250 258.621v-57.472Z"/><path stroke="#4c4e72" stroke-width="1.14942" fill="none" d="m399.772 172.414 49.771 28.735v57.472l-49.771 28.735L350 258.621v-57.472ZM499.772 172.414l49.771 28.735v57.472l-49.771 28.735L450 258.621v-57.472ZM599.772 172.414l49.771 28.735v57.472l-49.771 28.735L550 258.621v-57.472Z"/><path stroke="#4c4e72" stroke-width="1.14942" fill="#4c4e7283" d="m699.772 172.414 49.771 28.735v57.472l-49.771 28.735L650 258.621v-57.472Z"/><path stroke="#4c4e72" stroke-width="1.14942" fill="#4c4e7289" d="m799.772 172.414 49.771 28.735v57.472l-49.771 28.735L750 258.621v-57.472Z"/><path stroke="#4c4e72" stroke-width="1.14942" fill="none" d="m899.772 172.414 49.771 28.735v57.472l-49.771 28.735L850 258.621v-57.472ZM999.772 172.414l49.771 28.735v57.472l-49.771 28.735L950 258.621v-57.472ZM1099.772 172.414l49.771 28.735v57.472l-49.771 28.735L1050 258.621v-57.472ZM1199.772 172.414l49.771 28.735v57.472l-49.771 28.735L1150 258.621v-57.472Z"/><path stroke="#4c4e72" stroke-width="1.14942" fill="#4c4e72a5" d="m1299.772 172.414 49.771 28.735v57.472l-49.771 28.735L1250 258.621v-57.472Z"/><path stroke="#4c4e72" stroke-width="1.14942" fill="none" d="m1399.772 172.414 49.771 28.735v57.472l-49.771 28.735L1350 258.621v-57.472ZM1499.772 172.414l49.771 28.735v57.472l-49.771 28.735L1450 258.621v-57.472Z"/><path stroke="#4c4e72" stroke-width="1.14942" fill="#4c4e72c7" d="m1599.772 172.414 49.771 28.735v57.472l-49.771 28.735L1550 258.621v-57.472Z"/><path stroke="#4c4e72" stroke-width="1.14942" fill="#4c4e72e5" d="m1699.772 172.414 49.771 28.735v57.472l-49.771 28.735L1650 258.621v-57.472Z"/><path stroke="#4c4e72" stroke-width="1.14942" fill="none" d="m1799.772 172.414 49.771 28.735v57.472l-49.771 28.735L1750 258.621v-57.472ZM1899.772 172.414l49.771 28.735v57.472l-49.771 28.735L1850 258.621v-57.472Z"/><path stroke="#4c4e72" stroke-width="1.14942" fill="#4c4e72b3" d="m1999.772 172.414 49.771 28.735v57.472l-49.771 28.735L1950 258.621v-57.472Z"/><path stroke="#4c4e72" stroke-width="1.14942" fill="none" d="m49.772 258.62 49.771 28.736v57.472l-49.771 28.735L0 344.828v-57.472Z"/><path stroke="#4c4e72" stroke-width="1.14942" fill="#4c4e7299" d="m149.772 258.62 49.771 28.736v57.472l-49.771 28.735L100 344.828v-57.472Z"/><path stroke="#4c4e72" stroke-width="1.14942" fill="#4c4e7250" d="m249.772 258.62 49.771 28.736v57.472l-49.771 28.735L200 344.828v-57.472Z"/><path stroke="#4c4e72" stroke-width="1.14942" fill="none" d="m349.772 258.62 49.771 28.736v57.472l-49.771 28.735L300 344.828v-57.472ZM449.772 258.62l49.771 28.736v57.472l-49.771 28.735L400 344.828v-57.472ZM549.772 258.62l49.771 28.736v57.472l-49.771 28.735L500 344.828v-57.472Z"/><path stroke="#4c4e72" stroke-width="1.14942" fill="#4c4e7260" d="m649.772 258.62 49.771 28.736v57.472l-49.771 28.735L600 344.828v-57.472Z"/><path stroke="#4c4e72" stroke-width="1.14942" fill="#4c4e72eb" d="m749.772 258.62 49.771 28.736v57.472l-49.771 28.735L700 344.828v-57.472Z"/><path stroke="#4c4e72" stroke-width="1.14942" fill="none" d="m849.772 258.62 49.771 28.736v57.472l-49.771 28.735L800 344.828v-57.472ZM949.772 258.62l49.771 28.736v57.472l-49.771 28.735L900 344.828v-57.472ZM1049.772 258.62l49.771 28.736v57.472l-49.771 28.735L1000 344.828v-57.472ZM1149.772 258.62l49.771 28.736v57.472l-49.771 28.735L1100 344.828v-57.472Z"/><path stroke="#4c4e72" stroke-width="1.14942" fill="#4c4e72a5" d="m1249.772 258.62 49.771 28.736v57.472l-49.771 28.735L1200 344.828v-57.472Z"/><path stroke="#4c4e72" stroke-width="1.14942" fill="none" d="m1349.772 258.62 49.771 28.736v57.472l-49.771 28.735L1300 344.828v-57.472ZM1449.772 258.62l49.771 28.736v57.472l-49.771 28.735L1400 344.828v-57.472ZM1549.772 258.62l49.771 28.736v57.472l-49.771 28.735L1500 344.828v-57.472ZM1649.772 258.62l49.771 28.736v57.472l-49.771 28.735L1600 344.828v-57.472Z"/><path stroke="#4c4e72" stroke-width="1.14942" fill="#4c4e7201" d="m1749.772 258.62 49.771 28.736v57.472l-49.771 28.735L1700 344.828v-57.472Z"/><path stroke="#4c4e72" stroke-width="1.14942" fill="none" d="m1849.772 258.62 49.771 28.736v57.472l-49.771 28.735L1800 344.828v-57.472ZM1949.772 258.62l49.771 28.736v57.472l-49.771 28.735L1900 344.828v-57.472Z"/><path stroke="#4c4e72" stroke-width="1.14942" fill="#4c4e725a" d="m99.772 344.828 49.771 28.735v57.471L99.772 459.77 50 431.034v-57.47Z"/><path stroke="#4c4e72" stroke-width="1.14942" fill="#4c4e7283" d="m199.772 344.828 49.771 28.735v57.471l-49.771 28.736L150 431.034v-57.47Z"/><path stroke="#4c4e72" stroke-width="1.14942" fill="#4c4e72bb" d="m299.772 344.828 49.771 28.735v57.471l-49.771 28.736L250 431.034v-57.47Z"/><path stroke="#4c4e72" stroke-width="1.14942" fill="none" d="m399.772 344.828 49.771 28.735v57.471l-49.771 28.736L350 431.034v-57.47ZM499.772 344.828l49.771 28.735v57.471l-49.771 28.736L450 431.034v-57.47ZM599.772 344.828l49.771 28.735v57.471l-49.771 28.736L550 431.034v-57.47ZM699.772 344.828l49.771 28.735v57.471l-49.771 28.736L650 431.034v-57.47ZM799.772 344.828l49.771 28.735v57.471l-49.771 28.736L750 431.034v-57.47ZM899.772 344.828l49.771 28.735v57.471l-49.771 28.736L850 431.034v-57.47ZM999.772 344.828l49.771 28.735v57.471l-49.771 28.736L950 431.034v-57.47ZM1099.772 344.828l49.771 28.735v57.471l-49.771 28.736L1050 431.034v-57.47ZM1199.772 344.828l49.771 28.735v57.471l-49.771 28.736L1150 431.034v-57.47ZM1299.772 344.828l49.771 28.735v57.471l-49.771 28.736L1250 431.034v-57.47ZM1399.772 344.828l49.771 28.735v57.471l-49.771 28.736L1350 431.034v-57.47ZM1499.772 344.828l49.771 28.735v57.471l-49.771 28.736L1450 431.034v-57.47ZM1599.772 344.828l49.771 28.735v57.471l-49.771 28.736L1550 431.034v-57.47ZM1699.772 344.828l49.771 28.735v57.471l-49.771 28.736L1650 431.034v-57.47Z"/><path stroke="#4c4e72" stroke-width="1.14942" fill="#4c4e72e9" d="m1799.772 344.828 49.771 28.735v57.471l-49.771 28.736L1750 431.034v-57.47Z"/><path stroke="#4c4e72" stroke-width="1.14942" fill="none" d="m1899.772 344.828 49.771 28.735v57.471l-49.771 28.736L1850 431.034v-57.47ZM1999.772 344.828l49.771 28.735v57.471l-49.771 28.736L1950 431.034v-57.47ZM49.772 431.034l49.771 28.736v57.471l-49.771 28.736L0 517.241v-57.47Z"/><path stroke="#4c4e72" stroke-width="1.14942" fill="#4c4e720b" d="m149.772 431.034 49.771 28.736v57.471l-49.771 28.736L100 517.241v-57.47Z"/><path stroke="#4c4e72" stroke-width="1.14942" fill="none" d="m249.772 431.034 49.771 28.736v57.471l-49.771 28.736L200 517.241v-57.47ZM349.772 431.034l49.771 28.736v57.471l-49.771 28.736L300 517.241v-57.47Z"/><path stroke="#4c4e72" stroke-width="1.14942" fill="#4c4e7254" d="m449.772 431.034 49.771 28.736v57.471l-49.771 28.736L400 517.241v-57.47Z"/><path stroke="#4c4e72" stroke-width="1.14942" fill="#4c4e72fb" d="m549.772 431.034 49.771 28.736v57.471l-49.771 28.736L500 517.241v-57.47Z"/><path stroke="#4c4e72" stroke-width="1.14942" fill="#4c4e72d4" d="m649.772 431.034 49.771 28.736v57.471l-49.771 28.736L600 517.241v-57.47Z"/><path stroke="#4c4e72" stroke-width="1.14942" fill="#4c4e7208" d="m749.772 431.034 49.771 28.736v57.471l-49.771 28.736L700 517.241v-57.47Z"/><path stroke="#4c4e72" stroke-width="1.14942" fill="#4c4e725d" d="m849.772 431.034 49.771 28.736v57.471l-49.771 28.736L800 517.241v-57.47Z"/><path stroke="#4c4e72" stroke-width="1.14942" fill="none" d="m949.772 431.034 49.771 28.736v57.471l-49.771 28.736L900 517.241v-57.47ZM1049.772 431.034l49.771 28.736v57.471l-49.771 28.736L1000 517.241v-57.47ZM1149.772 431.034l49.771 28.736v57.471l-49.771 28.736L1100 517.241v-57.47ZM1249.772 431.034l49.771 28.736v57.471l-49.771 28.736L1200 517.241v-57.47ZM1349.772 431.034l49.771 28.736v57.471l-49.771 28.736L1300 517.241v-57.47ZM1449.772 431.034l49.771 28.736v57.471l-49.771 28.736L1400 517.241v-57.47Z"/><path stroke="#4c4e72" stroke-width="1.14942" fill="#4c4e7230" d="m1549.772 431.034 49.771 28.736v57.471l-49.771 28.736L1500 517.241v-57.47Z"/><path stroke="#4c4e72" stroke-width="1.14942" fill="none" d="m1649.772 431.034 49.771 28.736v57.471l-49.771 28.736L1600 517.241v-57.47ZM1749.772 431.034l49.771 28.736v57.471l-49.771 28.736L1700 517.241v-57.47ZM1849.772 431.034l49.771 28.736v57.471l-49.771 28.736L1800 517.241v-57.47ZM1949.772 431.034l49.771 28.736v57.471l-49.771 28.736L1900 517.241v-57.47ZM99.772 517.241l49.771 28.736v57.471l-49.771 28.736L50 603.448v-57.471ZM199.772 517.241l49.771 28.736v57.471l-49.771 28.736L150 603.448v-57.471ZM299.772 517.241l49.771 28.736v57.471l-49.771 28.736L250 603.448v-57.471ZM399.772 517.241l49.771 28.736v57.471l-49.771 28.736L350 603.448v-57.471ZM499.772 517.241l49.771 28.736v57.471l-49.771 28.736L450 603.448v-57.471ZM599.772 517.241l49.771 28.736v57.471l-49.771 28.736L550 603.448v-57.471ZM699.772 517.241l49.771 28.736v57.471l-49.771 28.736L650 603.448v-57.471ZM799.772 517.241l49.771 28.736v57.471l-49.771 28.736L750 603.448v-57.471ZM899.772 517.241l49.771 28.736v57.471l-49.771 28.736L850 603.448v-57.471Z"/><path stroke="#4c4e72" stroke-width="1.14942" fill="#4c4e72a8" d="m999.772 517.241 49.771 28.736v57.471l-49.771 28.736L950 603.448v-57.471Z"/><path stroke="#4c4e72" stroke-width="1.14942" fill="none" d="m1099.772 517.241 49.771 28.736v57.471l-49.771 28.736L1050 603.448v-57.471ZM1199.772 517.241l49.771 28.736v57.471l-49.771 28.736L1150 603.448v-57.471ZM1299.772 517.241l49.771 28.736v57.471l-49.771 28.736L1250 603.448v-57.471ZM1399.772 517.241l49.771 28.736v57.471l-49.771 28.736L1350 603.448v-57.471ZM1499.772 517.241l49.771 28.736v57.471l-49.771 28.736L1450 603.448v-57.471ZM1599.772 517.241l49.771 28.736v57.471l-49.771 28.736L1550 603.448v-57.471ZM1699.772 517.241l49.771 28.736v57.471l-49.771 28.736L1650 603.448v-57.471Z"/><path stroke="#4c4e72" stroke-width="1.14942" fill="#4c4e7295" d="m1799.772 517.241 49.771 28.736v57.471l-49.771 28.736L1750 603.448v-57.471Z"/><path stroke="#4c4e72" stroke-width="1.14942" fill="none" d="m1899.772 517.241 49.771 28.736v57.471l-49.771 28.736L1850 603.448v-57.471ZM1999.772 517.241l49.771 28.736v57.471l-49.771 28.736L1950 603.448v-57.471ZM49.772 603.448l49.771 28.736v57.471l-49.771 28.736L0 689.655v-57.471ZM149.772 603.448l49.771 28.736v57.471l-49.771 28.736L100 689.655v-57.471ZM249.772 603.448l49.771 28.736v57.471l-49.771 28.736L200 689.655v-57.471ZM349.772 603.448l49.771 28.736v57.471l-49.771 28.736L300 689.655v-57.471ZM449.772 603.448l49.771 28.736v57.471l-49.771 28.736L400 689.655v-57.471Z"/><path stroke="#4c4e72" stroke-width="1.14942" fill="#4c4e7271" d="m549.772 603.448 49.771 28.736v57.471l-49.771 28.736L500 689.655v-57.471Z"/><path stroke="#4c4e72" stroke-width="1.14942" fill="none" d="m649.772 603.448 49.771 28.736v57.471l-49.771 28.736L600 689.655v-57.471ZM749.772 603.448l49.771 28.736v57.471l-49.771 28.736L700 689.655v-57.471ZM849.772 603.448l49.771 28.736v57.471l-49.771 28.736L800 689.655v-57.471ZM949.772 603.448l49.771 28.736v57.471l-49.771 28.736L900 689.655v-57.471ZM1049.772 603.448l49.771 28.736v57.471l-49.771 28.736L1000 689.655v-57.471Z"/><path stroke="#4c4e72" stroke-width="1.14942" fill="#4c4e72f0" d="m1149.772 603.448 49.771 28.736v57.471l-49.771 28.736L1100 689.655v-57.471Z"/><path stroke="#4c4e72" stroke-width="1.14942" fill="none" d="m1249.772 603.448 49.771 28.736v57.471l-49.771 28.736L1200 689.655v-57.471ZM1349.772 603.448l49.771 28.736v57.471l-49.771 28.736L1300 689.655v-57.471ZM1449.772 603.448l49.771 28.736v57.471l-49.771 28.736L1400 689.655v-57.471Z"/><path stroke="#4c4e72" stroke-width="1.14942" fill="#4c4e72da" d="m1549.772 603.448 49.771 28.736v57.471l-49.771 28.736L1500 689.655v-57.471Z"/><path stroke="#4c4e72" stroke-width="1.14942" fill="none" d="m1649.772 603.448 49.771 28.736v57.471l-49.771 28.736L1600 689.655v-57.471ZM1749.772 603.448l49.771 28.736v57.471l-49.771 28.736L1700 689.655v-57.471ZM1849.772 603.448l49.771 28.736v57.471l-49.771 28.736L1800 689.655v-57.471ZM1949.772 603.448l49.771 28.736v57.471l-49.771 28.736L1900 689.655v-57.471Z"/><path stroke="#4c4e72" stroke-width="1.14942" fill="#4c4e7277" d="m99.772 689.655 49.771 28.736v57.471l-49.771 28.736L50 775.862v-57.471Z"/><path stroke="#4c4e72" stroke-width="1.14942" fill="none" d="m199.772 689.655 49.771 28.736v57.471l-49.771 28.736L150 775.862v-57.471ZM299.772 689.655l49.771 28.736v57.471l-49.771 28.736L250 775.862v-57.471ZM399.772 689.655l49.771 28.736v57.471l-49.771 28.736L350 775.862v-57.471ZM499.772 689.655l49.771 28.736v57.471l-49.771 28.736L450 775.862v-57.471Z"/><path stroke="#4c4e72" stroke-width="1.14942" fill="#4c4e7261" d="m599.772 689.655 49.771 28.736v57.471l-49.771 28.736L550 775.862v-57.471Z"/><path stroke="#4c4e72" stroke-width="1.14942" fill="none" d="m699.772 689.655 49.771 28.736v57.471l-49.771 28.736L650 775.862v-57.471ZM799.772 689.655l49.771 28.736v57.471l-49.771 28.736L750 775.862v-57.471ZM899.772 689.655l49.771 28.736v57.471l-49.771 28.736L850 775.862v-57.471ZM999.772 689.655l49.771 28.736v57.471l-49.771 28.736L950 775.862v-57.471ZM1099.772 689.655l49.771 28.736v57.471l-49.771 28.736L1050 775.862v-57.471ZM1199.772 689.655l49.771 28.736v57.471l-49.771 28.736L1150 775.862v-57.471ZM1299.772 689.655l49.771 28.736v57.471l-49.771 28.736L1250 775.862v-57.471ZM1399.772 689.655l49.771 28.736v57.471l-49.771 28.736L1350 775.862v-57.471ZM1499.772 689.655l49.771 28.736v57.471l-49.771 28.736L1450 775.862v-57.471ZM1599.772 689.655l49.771 28.736v57.471l-49.771 28.736L1550 775.862v-57.471ZM1699.772 689.655l49.771 28.736v57.471l-49.771 28.736L1650 775.862v-57.471Z"/><path stroke="#4c4e72" stroke-width="1.14942" fill="#4c4e721b" d="m1799.772 689.655 49.771 28.736v57.471l-49.771 28.736L1750 775.862v-57.471Z"/><path stroke="#4c4e72" stroke-width="1.14942" fill="none" d="m1899.772 689.655 49.771 28.736v57.471l-49.771 28.736L1850 775.862v-57.471ZM1999.772 689.655l49.771 28.736v57.471l-49.771 28.736L1950 775.862v-57.471ZM49.772 775.862l49.771 28.736v57.471l-49.771 28.736L0 862.069v-57.471ZM149.772 775.862l49.771 28.736v57.471l-49.771 28.736L100 862.069v-57.471Z"/><path stroke="#4c4e72" stroke-width="1.14942" fill="#4c4e7245" d="m249.772 775.862 49.771 28.736v57.471l-49.771 28.736L200 862.069v-57.471Z"/><path stroke="#4c4e72" stroke-width="1.14942" fill="#4c4e7209" d="m349.772 775.862 49.771 28.736v57.471l-49.771 28.736L300 862.069v-57.471Z"/><path stroke="#4c4e72" stroke-width="1.14942" fill="none" d="m449.772 775.862 49.771 28.736v57.471l-49.771 28.736L400 862.069v-57.471ZM549.772 775.862l49.771 28.736v57.471l-49.771 28.736L500 862.069v-57.471Z"/><path stroke="#4c4e72" stroke-width="1.14942" fill="#4c4e726c" d="m649.772 775.862 49.771 28.736v57.471l-49.771 28.736L600 862.069v-57.471Z"/><path stroke="#4c4e72" stroke-width="1.14942" fill="none" d="m749.772 775.862 49.771 28.736v57.471l-49.771 28.736L700 862.069v-57.471ZM849.772 775.862l49.771 28.736v57.471l-49.771 28.736L800 862.069v-57.471ZM949.772 775.862l49.771 28.736v57.471l-49.771 28.736L900 862.069v-57.471Z"/><path stroke="#4c4e72" stroke-width="1.14942" fill="#4c4e724b" d="m1049.772 775.862 49.771 28.736v57.471l-49.771 28.736L1000 862.069v-57.471Z"/><path stroke="#4c4e72" stroke-width="1.14942" fill="none" d="m1149.772 775.862 49.771 28.736v57.471l-49.771 28.736L1100 862.069v-57.471ZM1249.772 775.862l49.771 28.736v57.471l-49.771 28.736L1200 862.069v-57.471ZM1349.772 775.862l49.771 28.736v57.471l-49.771 28.736L1300 862.069v-57.471Z"/><path stroke="#4c4e72" stroke-width="1.14942" fill="#4c4e727e" d="m1449.772 775.862 49.771 28.736v57.471l-49.771 28.736L1400 862.069v-57.471Z"/><path stroke="#4c4e72" stroke-width="1.14942" fill="#4c4e7245" d="m1549.772 775.862 49.771 28.736v57.471l-49.771 28.736L1500 862.069v-57.471Z"/><path stroke="#4c4e72" stroke-width="1.14942" fill="#4c4e728b" d="m1649.772 775.862 49.771 28.736v57.471l-49.771 28.736L1600 862.069v-57.471Z"/><path stroke="#4c4e72" stroke-width="1.14942" fill="none" d="m1749.772 775.862 49.771 28.736v57.471l-49.771 28.736L1700 862.069v-57.471ZM1849.772 775.862l49.771 28.736v57.471l-49.771 28.736L1800 862.069v-57.471ZM1949.772 775.862l49.771 28.736v57.471l-49.771 28.736L1900 862.069v-57.471ZM99.772 862.069l49.771 28.736v57.47l-49.771 28.736L50 948.276v-57.471ZM199.772 862.069l49.771 28.736v57.47l-49.771 28.736L150 948.276v-57.471ZM299.772 862.069l49.771 28.736v57.47l-49.771 28.736L250 948.276v-57.471ZM399.772 862.069l49.771 28.736v57.47l-49.771 28.736L350 948.276v-57.471ZM499.772 862.069l49.771 28.736v57.47l-49.771 28.736L450 948.276v-57.471ZM599.772 862.069l49.771 28.736v57.47l-49.771 28.736L550 948.276v-57.471ZM699.772 862.069l49.771 28.736v57.47l-49.771 28.736L650 948.276v-57.471ZM799.772 862.069l49.771 28.736v57.47l-49.771 28.736L750 948.276v-57.471ZM899.772 862.069l49.771 28.736v57.47l-49.771 28.736L850 948.276v-57.471ZM999.772 862.069l49.771 28.736v57.47l-49.771 28.736L950 948.276v-57.471ZM1099.772 862.069l49.771 28.736v57.47l-49.771 28.736L1050 948.276v-57.471ZM1199.772 862.069l49.771 28.736v57.47l-49.771 28.736L1150 948.276v-57.471ZM1299.772 862.069l49.771 28.736v57.47l-49.771 28.736L1250 948.276v-57.471ZM1399.772 862.069l49.771 28.736v57.47l-49.771 28.736L1350 948.276v-57.471ZM1499.772 862.069l49.771 28.736v57.47l-49.771 28.736L1450 948.276v-57.471ZM1599.772 862.069l49.771 28.736v57.47l-49.771 28.736L1550 948.276v-57.471Z"/><path stroke="#4c4e72" stroke-width="1.14942" fill="#4c4e72f7" d="m1699.772 862.069 49.771 28.736v57.47l-49.771 28.736L1650 948.276v-57.471Z"/><path stroke="#4c4e72" stroke-width="1.14942" fill="none" d="m1799.772 862.069 49.771 28.736v57.47l-49.771 28.736L1750 948.276v-57.471ZM1899.772 862.069l49.771 28.736v57.47l-49.771 28.736L1850 948.276v-57.471Z"/><path stroke="#4c4e72" stroke-width="1.14942" fill="#4c4e726d" d="m1999.772 862.069 49.771 28.736v57.47l-49.771 28.736L1950 948.276v-57.471Z"/><path stroke="#4c4e72" stroke-width="1.14942" fill="none" d="m49.772 948.276 49.771 28.735v57.472l-49.771 28.735L0 1034.483V977.01ZM149.772 948.276l49.771 28.735v57.472l-49.771 28.735L100 1034.483V977.01Z"/><path stroke="#4c4e72" stroke-width="1.14942" fill="#4c4e727e" d="m249.772 948.276 49.771 28.735v57.472l-49.771 28.735L200 1034.483V977.01Z"/><path stroke="#4c4e72" stroke-width="1.14942" fill="#4c4e72bd" d="m349.772 948.276 49.771 28.735v57.472l-49.771 28.735L300 1034.483V977.01Z"/><path stroke="#4c4e72" stroke-width="1.14942" fill="#4c4e72dc" d="m449.772 948.276 49.771 28.735v57.472l-49.771 28.735L400 1034.483V977.01Z"/><path stroke="#4c4e72" stroke-width="1.14942" fill="none" d="m549.772 948.276 49.771 28.735v57.472l-49.771 28.735L500 1034.483V977.01Z"/><path stroke="#4c4e72" stroke-width="1.14942" fill="#4c4e7245" d="m649.772 948.276 49.771 28.735v57.472l-49.771 28.735L600 1034.483V977.01Z"/><path stroke="#4c4e72" stroke-width="1.14942" fill="#4c4e7216" d="m749.772 948.276 49.771 28.735v57.472l-49.771 28.735L700 1034.483V977.01Z"/><path stroke="#4c4e72" stroke-width="1.14942" fill="none" d="m849.772 948.276 49.771 28.735v57.472l-49.771 28.735L800 1034.483V977.01Z"/><path stroke="#4c4e72" stroke-width="1.14942" fill="#4c4e726e" d="m949.772 948.276 49.771 28.735v57.472l-49.771 28.735L900 1034.483V977.01Z"/><path stroke="#4c4e72" stroke-width="1.14942" fill="#4c4e724d" d="m1049.772 948.276 49.771 28.735v57.472l-49.771 28.735-49.772-28.735V977.01Z"/><path stroke="#4c4e72" stroke-width="1.14942" fill="none" d="m1149.772 948.276 49.771 28.735v57.472l-49.771 28.735-49.772-28.735V977.01Z"/><path stroke="#4c4e72" stroke-width="1.14942" fill="#4c4e7232" d="m1249.772 948.276 49.771 28.735v57.472l-49.771 28.735-49.772-28.735V977.01Z"/><path stroke="#4c4e72" stroke-width="1.14942" fill="#4c4e7264" d="m1349.772 948.276 49.771 28.735v57.472l-49.771 28.735-49.772-28.735V977.01Z"/><path stroke="#4c4e72" stroke-width="1.14942" fill="none" d="m1449.772 948.276 49.771 28.735v57.472l-49.771 28.735-49.772-28.735V977.01ZM1549.772 948.276l49.771 28.735v57.472l-49.771 28.735-49.772-28.735V977.01Z"/><path stroke="#4c4e72" stroke-width="1.14942" fill="#4c4e72c7" d="m1649.772 948.276 49.771 28.735v57.472l-49.771 28.735-49.772-28.735V977.01Z"/><path stroke="#4c4e72" stroke-width="1.14942" fill="#4c4e72a7" d="m1749.772 948.276 49.771 28.735v57.472l-49.771 28.735-49.772-28.735V977.01Z"/><path stroke="#4c4e72" stroke-width="1.14942" fill="none" d="m1849.772 948.276 49.771 28.735v57.472l-49.771 28.735-49.772-28.735V977.01ZM1949.772 948.276l49.771 28.735v57.472l-49.771 28.735-49.772-28.735V977.01Z"/><path stroke="#4c4e72" stroke-width="1.14942" fill="#4c4e72f0" d="m99.772 1034.483 49.771 28.735v57.472l-49.771 28.735L50 1120.69v-57.472Z"/><path stroke="#4c4e72" stroke-width="1.14942" fill="none" d="m199.772 1034.483 49.771 28.735v57.472l-49.771 28.735L150 1120.69v-57.472ZM299.772 1034.483l49.771 28.735v57.472l-49.771 28.735L250 1120.69v-57.472ZM399.772 1034.483l49.771 28.735v57.472l-49.771 28.735L350 1120.69v-57.472Z"/><path stroke="#4c4e72" stroke-width="1.14942" fill="#4c4e721c" d="m499.772 1034.483 49.771 28.735v57.472l-49.771 28.735L450 1120.69v-57.472Z"/><path stroke="#4c4e72" stroke-width="1.14942" fill="#4c4e72df" d="m599.772 1034.483 49.771 28.735v57.472l-49.771 28.735L550 1120.69v-57.472Z"/><path stroke="#4c4e72" stroke-width="1.14942" fill="none" d="m699.772 1034.483 49.771 28.735v57.472l-49.771 28.735L650 1120.69v-57.472ZM799.772 1034.483l49.771 28.735v57.472l-49.771 28.735L750 1120.69v-57.472ZM899.772 1034.483l49.771 28.735v57.472l-49.771 28.735L850 1120.69v-57.472ZM999.772 1034.483l49.771 28.735v57.472l-49.771 28.735L950 1120.69v-57.472ZM1099.772 1034.483l49.771 28.735v57.472l-49.771 28.735L1050 1120.69v-57.472ZM1199.772 1034.483l49.771 28.735v57.472l-49.771 28.735L1150 1120.69v-57.472ZM1299.772 1034.483l49.771 28.735v57.472l-49.771 28.735L1250 1120.69v-57.472ZM1399.772 1034.483l49.771 28.735v57.472l-49.771 28.735L1350 1120.69v-57.472ZM1499.772 1034.483l49.771 28.735v57.472l-49.771 28.735L1450 1120.69v-57.472ZM1599.772 1034.483l49.771 28.735v57.472l-49.771 28.735L1550 1120.69v-57.472Z"/><path stroke="#4c4e72" stroke-width="1.14942" fill="#4c4e726a" d="m1699.772 1034.483 49.771 28.735v57.472l-49.771 28.735L1650 1120.69v-57.472Z"/><path stroke="#4c4e72" stroke-width="1.14942" fill="none" d="m1799.772 1034.483 49.771 28.735v57.472l-49.771 28.735L1750 1120.69v-57.472ZM1899.772 1034.483l49.771 28.735v57.472l-49.771 28.735L1850 1120.69v-57.472ZM1999.772 1034.483l49.771 28.735v57.472l-49.771 28.735L1950 1120.69v-57.472ZM49.772 1120.69l49.771 28.735v57.472l-49.771 28.735L0 1206.897v-57.472ZM149.772 1120.69l49.771 28.735v57.472l-49.771 28.735L100 1206.897v-57.472ZM249.772 1120.69l49.771 28.735v57.472l-49.771 28.735L200 1206.897v-57.472ZM349.772 1120.69l49.771 28.735v57.472l-49.771 28.735L300 1206.897v-57.472Z"/><path stroke="#4c4e72" stroke-width="1.14942" fill="#4c4e722a" d="m449.772 1120.69 49.771 28.735v57.472l-49.771 28.735L400 1206.897v-57.472Z"/><path stroke="#4c4e72" stroke-width="1.14942" fill="none" d="m549.772 1120.69 49.771 28.735v57.472l-49.771 28.735L500 1206.897v-57.472ZM649.772 1120.69l49.771 28.735v57.472l-49.771 28.735L600 1206.897v-57.472ZM749.772 1120.69l49.771 28.735v57.472l-49.771 28.735L700 1206.897v-57.472ZM849.772 1120.69l49.771 28.735v57.472l-49.771 28.735L800 1206.897v-57.472ZM949.772 1120.69l49.771 28.735v57.472l-49.771 28.735L900 1206.897v-57.472Z"/><path stroke="#4c4e72" stroke-width="1.14942" fill="#4c4e72bf" d="m1049.772 1120.69 49.771 28.735v57.472l-49.771 28.735-49.772-28.735v-57.472Z"/><path stroke="#4c4e72" stroke-width="1.14942" fill="none" d="m1149.772 1120.69 49.771 28.735v57.472l-49.771 28.735-49.772-28.735v-57.472Z"/><path stroke="#4c4e72" stroke-width="1.14942" fill="#4c4e723d" d="m1249.772 1120.69 49.771 28.735v57.472l-49.771 28.735-49.772-28.735v-57.472Z"/><path stroke="#4c4e72" stroke-width="1.14942" fill="#4c4e729c" d="m1349.772 1120.69 49.771 28.735v57.472l-49.771 28.735-49.772-28.735v-57.472Z"/><path stroke="#4c4e72" stroke-width="1.14942" fill="#4c4e7250" d="m1449.772 1120.69 49.771 28.735v57.472l-49.771 28.735-49.772-28.735v-57.472Z"/><path stroke="#4c4e72" stroke-width="1.14942" fill="#4c4e72c5" d="m1549.772 1120.69 49.771 28.735v57.472l-49.771 28.735-49.772-28.735v-57.472Z"/><path stroke="#4c4e72" stroke-width="1.14942" fill="none" d="m1649.772 1120.69 49.771 28.735v57.472l-49.771 28.735-49.772-28.735v-57.472Z"/><path stroke="#4c4e72" stroke-width="1.14942" fill="#4c4e725f" d="m1749.772 1120.69 49.771 28.735v57.472l-49.771 28.735-49.772-28.735v-57.472Z"/><path stroke="#4c4e72" stroke-width="1.14942" fill="#4c4e722a" d="m1849.772 1120.69 49.771 28.735v57.472l-49.771 28.735-49.772-28.735v-57.472Z"/><path stroke="#4c4e72" stroke-width="1.14942" fill="none" d="m1949.772 1120.69 49.771 28.735v57.472l-49.771 28.735-49.772-28.735v-57.472ZM99.772 1206.897l49.771 28.735v57.471l-49.771 28.736L50 1293.103v-57.47ZM199.772 1206.897l49.771 28.735v57.471l-49.771 28.736L150 1293.103v-57.47ZM299.772 1206.897l49.771 28.735v57.471l-49.771 28.736L250 1293.103v-57.47ZM399.772 1206.897l49.771 28.735v57.471l-49.771 28.736L350 1293.103v-57.47ZM499.772 1206.897l49.771 28.735v57.471l-49.771 28.736L450 1293.103v-57.47ZM599.772 1206.897l49.771 28.735v57.471l-49.771 28.736L550 1293.103v-57.47ZM699.772 1206.897l49.771 28.735v57.471l-49.771 28.736L650 1293.103v-57.47ZM799.772 1206.897l49.771 28.735v57.471l-49.771 28.736L750 1293.103v-57.47ZM899.772 1206.897l49.771 28.735v57.471l-49.771 28.736L850 1293.103v-57.47Z"/><path stroke="#4c4e72" stroke-width="1.14942" fill="#4c4e7224" d="m999.772 1206.897 49.771 28.735v57.471l-49.771 28.736L950 1293.103v-57.47Z"/><path stroke="#4c4e72" stroke-width="1.14942" fill="none" d="m1099.772 1206.897 49.771 28.735v57.471l-49.771 28.736-49.772-28.736v-57.47Z"/><path stroke="#4c4e72" stroke-width="1.14942" fill="#4c4e723e" d="m1199.772 1206.897 49.771 28.735v57.471l-49.771 28.736-49.772-28.736v-57.47Z"/><path stroke="#4c4e72" stroke-width="1.14942" fill="none" d="m1299.772 1206.897 49.771 28.735v57.471l-49.771 28.736-49.772-28.736v-57.47ZM1399.772 1206.897l49.771 28.735v57.471l-49.771 28.736-49.772-28.736v-57.47ZM1499.772 1206.897l49.771 28.735v57.471l-49.771 28.736-49.772-28.736v-57.47ZM1599.772 1206.897l49.771 28.735v57.471l-49.771 28.736-49.772-28.736v-57.47Z"/><path stroke="#4c4e72" stroke-width="1.14942" fill="#4c4e7268" d="m1699.772 1206.897 49.771 28.735v57.471l-49.771 28.736-49.772-28.736v-57.47Z"/><path stroke="#4c4e72" stroke-width="1.14942" fill="none" d="m1799.772 1206.897 49.771 28.735v57.471l-49.771 28.736-49.772-28.736v-57.47ZM1899.772 1206.897l49.771 28.735v57.471l-49.771 28.736-49.772-28.736v-57.47ZM1999.772 1206.897l49.771 28.735v57.471l-49.771 28.736-49.772-28.736v-57.47ZM49.772 1293.103l49.771 28.736v57.471l-49.771 28.736L0 1379.31v-57.47ZM149.772 1293.103l49.771 28.736v57.471l-49.771 28.736L100 1379.31v-57.47ZM249.772 1293.103l49.771 28.736v57.471l-49.771 28.736L200 1379.31v-57.47ZM349.772 1293.103l49.771 28.736v57.471l-49.771 28.736L300 1379.31v-57.47ZM449.772 1293.103l49.771 28.736v57.471l-49.771 28.736L400 1379.31v-57.47Z"/><path stroke="#4c4e72" stroke-width="1.14942" fill="#4c4e7275" d="m549.772 1293.103 49.771 28.736v57.471l-49.771 28.736L500 1379.31v-57.47Z"/><path stroke="#4c4e72" stroke-width="1.14942" fill="#4c4e7237" d="m649.772 1293.103 49.771 28.736v57.471l-49.771 28.736L600 1379.31v-57.47Z"/><path stroke="#4c4e72" stroke-width="1.14942" fill="none" d="m749.772 1293.103 49.771 28.736v57.471l-49.771 28.736L700 1379.31v-57.47ZM849.772 1293.103l49.771 28.736v57.471l-49.771 28.736L800 1379.31v-57.47ZM949.772 1293.103l49.771 28.736v57.471l-49.771 28.736L900 1379.31v-57.47ZM1049.772 1293.103l49.771 28.736v57.471l-49.771 28.736L1000 1379.31v-57.47ZM1149.772 1293.103l49.771 28.736v57.471l-49.771 28.736L1100 1379.31v-57.47ZM1249.772 1293.103l49.771 28.736v57.471l-49.771 28.736L1200 1379.31v-57.47ZM1349.772 1293.103l49.771 28.736v57.471l-49.771 28.736L1300 1379.31v-57.47ZM1449.772 1293.103l49.771 28.736v57.471l-49.771 28.736L1400 1379.31v-57.47ZM1549.772 1293.103l49.771 28.736v57.471l-49.771 28.736L1500 1379.31v-57.47ZM1649.772 1293.103l49.771 28.736v57.471l-49.771 28.736L1600 1379.31v-57.47ZM1749.772 1293.103l49.771 28.736v57.471l-49.771 28.736L1700 1379.31v-57.47Z"/><path stroke="#4c4e72" stroke-width="1.14942" fill="#4c4e72de" d="m1849.772 1293.103 49.771 28.736v57.471l-49.771 28.736L1800 1379.31v-57.47Z"/><path stroke="#4c4e72" stroke-width="1.14942" fill="#4c4e7244" d="m1949.772 1293.103 49.771 28.736v57.471l-49.771 28.736L1900 1379.31v-57.47Z"/><path stroke="#4c4e72" stroke-width="1.14942" fill="#4c4e72c0" d="m99.772 1379.31 49.771 28.736v57.471l-49.771 28.736L50 1465.517v-57.471Z"/><path stroke="#4c4e72" stroke-width="1.14942" fill="none" d="m199.772 1379.31 49.771 28.736v57.471l-49.771 28.736L150 1465.517v-57.471Z"/><path stroke="#4c4e72" stroke-width="1.14942" fill="#4c4e72bf" d="m299.772 1379.31 49.771 28.736v57.471l-49.771 28.736L250 1465.517v-57.471Z"/><path stroke="#4c4e72" stroke-width="1.14942" fill="none" d="m399.772 1379.31 49.771 28.736v57.471l-49.771 28.736L350 1465.517v-57.471ZM499.772 1379.31l49.771 28.736v57.471l-49.771 28.736L450 1465.517v-57.471ZM599.772 1379.31l49.771 28.736v57.471l-49.771 28.736L550 1465.517v-57.471Z"/><path stroke="#4c4e72" stroke-width="1.14942" fill="#4c4e723a" d="m699.772 1379.31 49.771 28.736v57.471l-49.771 28.736L650 1465.517v-57.471Z"/><path stroke="#4c4e72" stroke-width="1.14942" fill="#4c4e7273" d="m799.772 1379.31 49.771 28.736v57.471l-49.771 28.736L750 1465.517v-57.471Z"/><path stroke="#4c4e72" stroke-width="1.14942" fill="none" d="m899.772 1379.31 49.771 28.736v57.471l-49.771 28.736L850 1465.517v-57.471ZM999.772 1379.31l49.771 28.736v57.471l-49.771 28.736L950 1465.517v-57.471ZM1099.772 1379.31l49.771 28.736v57.471l-49.771 28.736-49.772-28.736v-57.471ZM1199.772 1379.31l49.771 28.736v57.471l-49.771 28.736-49.772-28.736v-57.471Z"/><path stroke="#4c4e72" stroke-width="1.14942" fill="#4c4e728e" d="m1299.772 1379.31 49.771 28.736v57.471l-49.771 28.736-49.772-28.736v-57.471Z"/><path stroke="#4c4e72" stroke-width="1.14942" fill="none" d="m1399.772 1379.31 49.771 28.736v57.471l-49.771 28.736-49.772-28.736v-57.471ZM1499.772 1379.31l49.771 28.736v57.471l-49.771 28.736-49.772-28.736v-57.471ZM1599.772 1379.31l49.771 28.736v57.471l-49.771 28.736-49.772-28.736v-57.471ZM1699.772 1379.31l49.771 28.736v57.471l-49.771 28.736-49.772-28.736v-57.471ZM1799.772 1379.31l49.771 28.736v57.471l-49.771 28.736-49.772-28.736v-57.471Z"/><path stroke="#4c4e72" stroke-width="1.14942" fill="#4c4e725c" d="m1899.772 1379.31 49.771 28.736v57.471l-49.771 28.736-49.772-28.736v-57.471Z"/><path stroke="#4c4e72" stroke-width="1.14942" fill="#4c4e7270" d="m1999.772 1379.31 49.771 28.736v57.471l-49.771 28.736-49.772-28.736v-57.471Z"/><path stroke="#4c4e72" stroke-width="1.14942" fill="none" d="m49.772 1465.517 49.771 28.736v57.471l-49.771 28.736L0 1551.724v-57.471ZM149.772 1465.517l49.771 28.736v57.471l-49.771 28.736L100 1551.724v-57.471ZM249.772 1465.517l49.771 28.736v57.471l-49.771 28.736L200 1551.724v-57.471Z"/><path stroke="#4c4e72" stroke-width="1.14942" fill="#4c4e7278" d="m349.772 1465.517 49.771 28.736v57.471l-49.771 28.736L300 1551.724v-57.471Z"/><path stroke="#4c4e72" stroke-width="1.14942" fill="none" d="m449.772 1465.517 49.771 28.736v57.471l-49.771 28.736L400 1551.724v-57.471Z"/><path stroke="#4c4e72" stroke-width="1.14942" fill="#4c4e7267" d="m549.772 1465.517 49.771 28.736v57.471l-49.771 28.736L500 1551.724v-57.471Z"/><path stroke="#4c4e72" stroke-width="1.14942" fill="none" d="m649.772 1465.517 49.771 28.736v57.471l-49.771 28.736L600 1551.724v-57.471Z"/><path stroke="#4c4e72" stroke-width="1.14942" fill="#4c4e72f7" d="m749.772 1465.517 49.771 28.736v57.471l-49.771 28.736L700 1551.724v-57.471Z"/><path stroke="#4c4e72" stroke-width="1.14942" fill="none" d="m849.772 1465.517 49.771 28.736v57.471l-49.771 28.736L800 1551.724v-57.471ZM949.772 1465.517l49.771 28.736v57.471l-49.771 28.736L900 1551.724v-57.471ZM1049.772 1465.517l49.771 28.736v57.471l-49.771 28.736-49.772-28.736v-57.471ZM1149.772 1465.517l49.771 28.736v57.471l-49.771 28.736-49.772-28.736v-57.471ZM1249.772 1465.517l49.771 28.736v57.471l-49.771 28.736-49.772-28.736v-57.471ZM1349.772 1465.517l49.771 28.736v57.471l-49.771 28.736-49.772-28.736v-57.471ZM1449.772 1465.517l49.771 28.736v57.471l-49.771 28.736-49.772-28.736v-57.471ZM1549.772 1465.517l49.771 28.736v57.471l-49.771 28.736-49.772-28.736v-57.471ZM1649.772 1465.517l49.771 28.736v57.471l-49.771 28.736-49.772-28.736v-57.471ZM1749.772 1465.517l49.771 28.736v57.471l-49.771 28.736-49.772-28.736v-57.471ZM1849.772 1465.517l49.771 28.736v57.471l-49.771 28.736-49.772-28.736v-57.471ZM1949.772 1465.517l49.771 28.736v57.471l-49.771 28.736-49.772-28.736v-57.471Z"/><path stroke="#4c4e72" stroke-width="1.14942" fill="#4c4e7209" d="m99.772 1551.724 49.771 28.736v57.471l-49.771 28.736L50 1637.93v-57.471Z"/><path stroke="#4c4e72" stroke-width="1.14942" fill="none" d="m199.772 1551.724 49.771 28.736v57.471l-49.771 28.736L150 1637.93v-57.471ZM299.772 1551.724l49.771 28.736v57.471l-49.771 28.736L250 1637.93v-57.471ZM399.772 1551.724l49.771 28.736v57.471l-49.771 28.736L350 1637.93v-57.471Z"/><path stroke="#4c4e72" stroke-width="1.14942" fill="#4c4e7245" d="m499.772 1551.724 49.771 28.736v57.471l-49.771 28.736L450 1637.93v-57.471Z"/><path stroke="#4c4e72" stroke-width="1.14942" fill="#4c4e724f" d="m599.772 1551.724 49.771 28.736v57.471l-49.771 28.736L550 1637.93v-57.471Z"/><path stroke="#4c4e72" stroke-width="1.14942" fill="none" d="m699.772 1551.724 49.771 28.736v57.471l-49.771 28.736L650 1637.93v-57.471Z"/><path stroke="#4c4e72" stroke-width="1.14942" fill="#4c4e7280" d="m799.772 1551.724 49.771 28.736v57.471l-49.771 28.736L750 1637.93v-57.471Z"/><path stroke="#4c4e72" stroke-width="1.14942" fill="none" d="m899.772 1551.724 49.771 28.736v57.471l-49.771 28.736L850 1637.93v-57.471Z"/><path stroke="#4c4e72" stroke-width="1.14942" fill="#4c4e7231" d="m999.772 1551.724 49.771 28.736v57.471l-49.771 28.736L950 1637.93v-57.471Z"/><path stroke="#4c4e72" stroke-width="1.14942" fill="none" d="m1099.772 1551.724 49.771 28.736v57.471l-49.771 28.736L1050 1637.93v-57.471ZM1199.772 1551.724l49.771 28.736v57.471l-49.771 28.736L1150 1637.93v-57.471ZM1299.772 1551.724l49.771 28.736v57.471l-49.771 28.736L1250 1637.93v-57.471ZM1399.772 1551.724l49.771 28.736v57.471l-49.771 28.736L1350 1637.93v-57.471ZM1499.772 1551.724l49.771 28.736v57.471l-49.771 28.736L1450 1637.93v-57.471ZM1599.772 1551.724l49.771 28.736v57.471l-49.771 28.736L1550 1637.93v-57.471Z"/><path stroke="#4c4e72" stroke-width="1.14942" fill="#4c4e72a1" d="m1699.772 1551.724 49.771 28.736v57.471l-49.771 28.736L1650 1637.93v-57.471Z"/><path stroke="#4c4e72" stroke-width="1.14942" fill="none" d="m1799.772 1551.724 49.771 28.736v57.471l-49.771 28.736L1750 1637.93v-57.471Z"/><path stroke="#4c4e72" stroke-width="1.14942" fill="#4c4e7260" d="m1899.772 1551.724 49.771 28.736v57.471l-49.771 28.736L1850 1637.93v-57.471Z"/><path stroke="#4c4e72" stroke-width="1.14942" fill="none" d="m1999.772 1551.724 49.771 28.736v57.471l-49.771 28.736L1950 1637.93v-57.471Z"/><path stroke="#4c4e72" stroke-width="1.14942" fill="#4c4e7209" d="m49.772 1637.931 49.771 28.736v57.47l-49.771 28.737L0 1724.138v-57.471Z"/><path stroke="#4c4e72" stroke-width="1.14942" fill="none" d="m149.772 1637.931 49.771 28.736v57.47l-49.771 28.737L100 1724.138v-57.471ZM249.772 1637.931l49.771 28.736v57.47l-49.771 28.737L200 1724.138v-57.471Z"/><path stroke="#4c4e72" stroke-width="1.14942" fill="#4c4e727a" d="m349.772 1637.931 49.771 28.736v57.47l-49.771 28.737L300 1724.138v-57.471Z"/><path stroke="#4c4e72" stroke-width="1.14942" fill="none" d="m449.772 1637.931 49.771 28.736v57.47l-49.771 28.737L400 1724.138v-57.471ZM549.772 1637.931l49.771 28.736v57.47l-49.771 28.737L500 1724.138v-57.471Z"/><path stroke="#4c4e72" stroke-width="1.14942" fill="#4c4e7232" d="m649.772 1637.931 49.771 28.736v57.47l-49.771 28.737L600 1724.138v-57.471Z"/><path stroke="#4c4e72" stroke-width="1.14942" fill="#4c4e72bd" d="m749.772 1637.931 49.771 28.736v57.47l-49.771 28.737L700 1724.138v-57.471Z"/><path stroke="#4c4e72" stroke-width="1.14942" fill="none" d="m849.772 1637.931 49.771 28.736v57.47l-49.771 28.737L800 1724.138v-57.471ZM949.772 1637.931l49.771 28.736v57.47l-49.771 28.737L900 1724.138v-57.471ZM1049.772 1637.931l49.771 28.736v57.47l-49.771 28.737-49.772-28.736v-57.471Z"/><path stroke="#4c4e72" stroke-width="1.14942" fill="#4c4e728b" d="m1149.772 1637.931 49.771 28.736v57.47l-49.771 28.737-49.772-28.736v-57.471Z"/><path stroke="#4c4e72" stroke-width="1.14942" fill="#4c4e720f" d="m1249.772 1637.931 49.771 28.736v57.47l-49.771 28.737-49.772-28.736v-57.471Z"/><path stroke="#4c4e72" stroke-width="1.14942" fill="none" d="m1349.772 1637.931 49.771 28.736v57.47l-49.771 28.737-49.772-28.736v-57.471ZM1449.772 1637.931l49.771 28.736v57.47l-49.771 28.737-49.772-28.736v-57.471ZM1549.772 1637.931l49.771 28.736v57.47l-49.771 28.737-49.772-28.736v-57.471ZM1649.772 1637.931l49.771 28.736v57.47l-49.771 28.737-49.772-28.736v-57.471Z"/><path stroke="#4c4e72" stroke-width="1.14942" fill="#4c4e72c8" d="m1749.772 1637.931 49.771 28.736v57.47l-49.771 28.737-49.772-28.736v-57.471Z"/><path stroke="#4c4e72" stroke-width="1.14942" fill="#4c4e72c4" d="m1849.772 1637.931 49.771 28.736v57.47l-49.771 28.737-49.772-28.736v-57.471Z"/><path stroke="#4c4e72" stroke-width="1.14942" fill="none" d="m1949.772 1637.931 49.771 28.736v57.47l-49.771 28.737-49.772-28.736v-57.471ZM99.772 1724.138l49.771 28.736v57.47l-49.771 28.736L50 1810.345v-57.471ZM199.772 1724.138l49.771 28.736v57.47l-49.771 28.736L150 1810.345v-57.471Z"/><path stroke="#4c4e72" stroke-width="1.14942" fill="#4c4e7290" d="m299.772 1724.138 49.771 28.736v57.47l-49.771 28.736L250 1810.345v-57.471Z"/><path stroke="#4c4e72" stroke-width="1.14942" fill="#4c4e72a1" d="m399.772 1724.138 49.771 28.736v57.47l-49.771 28.736L350 1810.345v-57.471Z"/><path stroke="#4c4e72" stroke-width="1.14942" fill="none" d="m499.772 1724.138 49.771 28.736v57.47l-49.771 28.736L450 1810.345v-57.471ZM599.772 1724.138l49.771 28.736v57.47l-49.771 28.736L550 1810.345v-57.471ZM699.772 1724.138l49.771 28.736v57.47l-49.771 28.736L650 1810.345v-57.471ZM799.772 1724.138l49.771 28.736v57.47l-49.771 28.736L750 1810.345v-57.471ZM899.772 1724.138l49.771 28.736v57.47l-49.771 28.736L850 1810.345v-57.471ZM999.772 1724.138l49.771 28.736v57.47l-49.771 28.736L950 1810.345v-57.471ZM1099.772 1724.138l49.771 28.736v57.47l-49.771 28.736-49.772-28.735v-57.471Z"/><path stroke="#4c4e72" stroke-width="1.14942" fill="#4c4e720d" d="m1199.772 1724.138 49.771 28.736v57.47l-49.771 28.736-49.772-28.735v-57.471Z"/><path stroke="#4c4e72" stroke-width="1.14942" fill="#4c4e72af" d="m1299.772 1724.138 49.771 28.736v57.47l-49.771 28.736-49.772-28.735v-57.471Z"/><path stroke="#4c4e72" stroke-width="1.14942" fill="none" d="m1399.772 1724.138 49.771 28.736v57.47l-49.771 28.736-49.772-28.735v-57.471ZM1499.772 1724.138l49.771 28.736v57.47l-49.771 28.736-49.772-28.735v-57.471ZM1599.772 1724.138l49.771 28.736v57.47l-49.771 28.736-49.772-28.735v-57.471ZM1699.772 1724.138l49.771 28.736v57.47l-49.771 28.736-49.772-28.735v-57.471ZM1799.772 1724.138l49.771 28.736v57.47l-49.771 28.736-49.772-28.735v-57.471ZM1899.772 1724.138l49.771 28.736v57.47l-49.771 28.736-49.772-28.735v-57.471ZM1999.772 1724.138l49.771 28.736v57.47l-49.771 28.736-49.772-28.735v-57.471Z"/><path stroke="#4c4e72" stroke-width="1.14942" fill="#4c4e72bb" d="m49.772 1810.345 49.771 28.735v57.472l-49.771 28.735L0 1896.552v-57.472Z"/><path stroke="#4c4e72" stroke-width="1.14942" fill="none" d="m149.772 1810.345 49.771 28.735v57.472l-49.771 28.735L100 1896.552v-57.472ZM249.772 1810.345l49.771 28.735v57.472l-49.771 28.735L200 1896.552v-57.472ZM349.772 1810.345l49.771 28.735v57.472l-49.771 28.735L300 1896.552v-57.472ZM449.772 1810.345l49.771 28.735v57.472l-49.771 28.735L400 1896.552v-57.472ZM549.772 1810.345l49.771 28.735v57.472l-49.771 28.735L500 1896.552v-57.472ZM649.772 1810.345l49.771 28.735v57.472l-49.771 28.735L600 1896.552v-57.472ZM749.772 1810.345l49.771 28.735v57.472l-49.771 28.735L700 1896.552v-57.472ZM849.772 1810.345l49.771 28.735v57.472l-49.771 28.735L800 1896.552v-57.472Z"/><path stroke="#4c4e72" stroke-width="1.14942" fill="#4c4e72a9" d="m949.772 1810.345 49.771 28.735v57.472l-49.771 28.735L900 1896.552v-57.472Z"/><path stroke="#4c4e72" stroke-width="1.14942" fill="none" d="m1049.772 1810.345 49.771 28.735v57.472l-49.771 28.735-49.772-28.735v-57.472ZM1149.772 1810.345l49.771 28.735v57.472l-49.771 28.735-49.772-28.735v-57.472ZM1249.772 1810.345l49.771 28.735v57.472l-49.771 28.735-49.772-28.735v-57.472Z"/><path stroke="#4c4e72" stroke-width="1.14942" fill="#4c4e72c2" d="m1349.772 1810.345 49.771 28.735v57.472l-49.771 28.735-49.772-28.735v-57.472Z"/><path stroke="#4c4e72" stroke-width="1.14942" fill="none" d="m1449.772 1810.345 49.771 28.735v57.472l-49.771 28.735-49.772-28.735v-57.472Z"/><path stroke="#4c4e72" stroke-width="1.14942" fill="#4c4e72f9" d="m1549.772 1810.345 49.771 28.735v57.472l-49.771 28.735-49.772-28.735v-57.472Z"/><path stroke="#4c4e72" stroke-width="1.14942" fill="none" d="m1649.772 1810.345 49.771 28.735v57.472l-49.771 28.735-49.772-28.735v-57.472ZM1749.772 1810.345l49.771 28.735v57.472l-49.771 28.735-49.772-28.735v-57.472ZM1849.772 1810.345l49.771 28.735v57.472l-49.771 28.735-49.772-28.735v-57.472ZM1949.772 1810.345l49.771 28.735v57.472l-49.771 28.735-49.772-28.735v-57.472Z"/><path stroke="#4c4e72" stroke-width="1.14942" fill="#4c4e725a" d="m99.772 1896.552 49.771 28.735v57.472l-49.771 28.735L50 1982.76v-57.472Z"/><path stroke="#4c4e72" stroke-width="1.14942" fill="none" d="m199.772 1896.552 49.771 28.735v57.472l-49.771 28.735L150 1982.76v-57.472Z"/><path stroke="#4c4e72" stroke-width="1.14942" fill="#4c4e7251" d="m299.772 1896.552 49.771 28.735v57.472l-49.771 28.735L250 1982.76v-57.472Z"/><path stroke="#4c4e72" stroke-width="1.14942" fill="#4c4e727d" d="m399.772 1896.552 49.771 28.735v57.472l-49.771 28.735L350 1982.76v-57.472Z"/><path stroke="#4c4e72" stroke-width="1.14942" fill="none" d="m499.772 1896.552 49.771 28.735v57.472l-49.771 28.735L450 1982.76v-57.472Z"/><path stroke="#4c4e72" stroke-width="1.14942" fill="#4c4e7238" d="m599.772 1896.552 49.771 28.735v57.472l-49.771 28.735L550 1982.76v-57.472Z"/><path stroke="#4c4e72" stroke-width="1.14942" fill="#4c4e7246" d="m699.772 1896.552 49.771 28.735v57.472l-49.771 28.735L650 1982.76v-57.472Z"/><path stroke="#4c4e72" stroke-width="1.14942" fill="none" d="m799.772 1896.552 49.771 28.735v57.472l-49.771 28.735L750 1982.76v-57.472ZM899.772 1896.552l49.771 28.735v57.472l-49.771 28.735L850 1982.76v-57.472Z"/><path stroke="#4c4e72" stroke-width="1.14942" fill="#4c4e72bf" d="m999.772 1896.552 49.771 28.735v57.472l-49.771 28.735L950 1982.76v-57.472Z"/><path stroke="#4c4e72" stroke-width="1.14942" fill="#4c4e7272" d="m1099.772 1896.552 49.771 28.735v57.472l-49.771 28.735L1050 1982.76v-57.472Z"/><path stroke="#4c4e72" stroke-width="1.14942" fill="#4c4e7251" d="m1199.772 1896.552 49.771 28.735v57.472l-49.771 28.735L1150 1982.76v-57.472Z"/><path stroke="#4c4e72" stroke-width="1.14942" fill="none" d="m1299.772 1896.552 49.771 28.735v57.472l-49.771 28.735L1250 1982.76v-57.472ZM1399.772 1896.552l49.771 28.735v57.472l-49.771 28.735L1350 1982.76v-57.472Z"/><path stroke="#4c4e72" stroke-width="1.14942" fill="#4c4e72d4" d="m1499.772 1896.552 49.771 28.735v57.472l-49.771 28.735L1450 1982.76v-57.472Z"/><path stroke="#4c4e72" stroke-width="1.14942" fill="none" d="m1599.772 1896.552 49.771 28.735v57.472l-49.771 28.735L1550 1982.76v-57.472ZM1699.772 1896.552l49.771 28.735v57.472l-49.771 28.735L1650 1982.76v-57.472ZM1799.772 1896.552l49.771 28.735v57.472l-49.771 28.735L1750 1982.76v-57.472Z"/><path stroke="#4c4e72" stroke-width="1.14942" fill="#4c4e728d" d="m1899.772 1896.552 49.771 28.735v57.472l-49.771 28.735L1850 1982.76v-57.472Z"/><path stroke="#4c4e72" stroke-width="1.14942" fill="none" d="m1999.772 1896.552 49.771 28.735v57.472l-49.771 28.735L1950 1982.76v-57.472ZM49.772 1982.759l49.771 28.735v57.472L49.772 2097.7 0 2068.966v-57.472ZM149.772 1982.759l49.771 28.735v57.472l-49.771 28.735L100 2068.966v-57.472ZM249.772 1982.759l49.771 28.735v57.472l-49.771 28.735L200 2068.966v-57.472ZM349.772 1982.759l49.771 28.735v57.472l-49.771 28.735L300 2068.966v-57.472ZM449.772 1982.759l49.771 28.735v57.472l-49.771 28.735L400 2068.966v-57.472ZM549.772 1982.759l49.771 28.735v57.472l-49.771 28.735L500 2068.966v-57.472ZM649.772 1982.759l49.771 28.735v57.472l-49.771 28.735L600 2068.966v-57.472Z"/><path stroke="#4c4e72" stroke-width="1.14942" fill="#4c4e7294" d="m749.772 1982.759 49.771 28.735v57.472l-49.771 28.735L700 2068.966v-57.472Z"/><path stroke="#4c4e72" stroke-width="1.14942" fill="none" d="m849.772 1982.759 49.771 28.735v57.472l-49.771 28.735L800 2068.966v-57.472ZM949.772 1982.759l49.771 28.735v57.472l-49.771 28.735L900 2068.966v-57.472ZM1049.772 1982.759l49.771 28.735v57.472l-49.771 28.735-49.772-28.735v-57.472Z"/><path stroke="#4c4e72" stroke-width="1.14942" fill="#4c4e72b8" d="m1149.772 1982.759 49.771 28.735v57.472l-49.771 28.735-49.772-28.735v-57.472Z"/><path stroke="#4c4e72" stroke-width="1.14942" fill="none" d="m1249.772 1982.759 49.771 28.735v57.472l-49.771 28.735-49.772-28.735v-57.472Z"/><path stroke="#4c4e72" stroke-width="1.14942" fill="#4c4e7209" d="m1349.772 1982.759 49.771 28.735v57.472l-49.771 28.735-49.772-28.735v-57.472Z"/><path stroke="#4c4e72" stroke-width="1.14942" fill="none" d="m1449.772 1982.759 49.771 28.735v57.472l-49.771 28.735-49.772-28.735v-57.472ZM1549.772 1982.759l49.771 28.735v57.472l-49.771 28.735-49.772-28.735v-57.472ZM1649.772 1982.759l49.771 28.735v57.472l-49.771 28.735-49.772-28.735v-57.472ZM1749.772 1982.759l49.771 28.735v57.472l-49.771 28.735-49.772-28.735v-57.472ZM1849.772 1982.759l49.771 28.735v57.472l-49.771 28.735-49.772-28.735v-57.472ZM1949.772 1982.759l49.771 28.735v57.472l-49.771 28.735-49.772-28.735v-57.472Z"/><path stroke="#4c4e72" stroke-width="1.14942" fill="#4c4e728e" d="m99.772 2068.966 49.771 28.735v57.471l-49.771 28.736L50 2155.172v-57.47Z"/><path stroke="#4c4e72" stroke-width="1.14942" fill="none" d="m199.772 2068.966 49.771 28.735v57.471l-49.771 28.736L150 2155.172v-57.47ZM299.772 2068.966l49.771 28.735v57.471l-49.771 28.736L250 2155.172v-57.47ZM399.772 2068.966l49.771 28.735v57.471l-49.771 28.736L350 2155.172v-57.47Z"/><path stroke="#4c4e72" stroke-width="1.14942" fill="#4c4e7211" d="m499.772 2068.966 49.771 28.735v57.471l-49.771 28.736L450 2155.172v-57.47Z"/><path stroke="#4c4e72" stroke-width="1.14942" fill="none" d="m599.772 2068.966 49.771 28.735v57.471l-49.771 28.736L550 2155.172v-57.47Z"/><path stroke="#4c4e72" stroke-width="1.14942" fill="#4c4e7235" d="m699.772 2068.966 49.771 28.735v57.471l-49.771 28.736L650 2155.172v-57.47Z"/><path stroke="#4c4e72" stroke-width="1.14942" fill="none" d="m799.772 2068.966 49.771 28.735v57.471l-49.771 28.736L750 2155.172v-57.47ZM899.772 2068.966l49.771 28.735v57.471l-49.771 28.736L850 2155.172v-57.47Z"/><path stroke="#4c4e72" stroke-width="1.14942" fill="#4c4e7265" d="m999.772 2068.966 49.771 28.735v57.471l-49.771 28.736L950 2155.172v-57.47Z"/><path stroke="#4c4e72" stroke-width="1.14942" fill="#4c4e72fd" d="m1099.772 2068.966 49.771 28.735v57.471l-49.771 28.736-49.772-28.736v-57.47Z"/><path stroke="#4c4e72" stroke-width="1.14942" fill="#4c4e72e9" d="m1199.772 2068.966 49.771 28.735v57.471l-49.771 28.736-49.772-28.736v-57.47Z"/><path stroke="#4c4e72" stroke-width="1.14942" fill="#4c4e7234" d="m1299.772 2068.966 49.771 28.735v57.471l-49.771 28.736-49.772-28.736v-57.47Z"/><path stroke="#4c4e72" stroke-width="1.14942" fill="#4c4e72cf" d="m1399.772 2068.966 49.771 28.735v57.471l-49.771 28.736-49.772-28.736v-57.47Z"/><path stroke="#4c4e72" stroke-width="1.14942" fill="none" d="m1499.772 2068.966 49.771 28.735v57.471l-49.771 28.736-49.772-28.736v-57.47ZM1599.772 2068.966l49.771 28.735v57.471l-49.771 28.736-49.772-28.736v-57.47ZM1699.772 2068.966l49.771 28.735v57.471l-49.771 28.736-49.772-28.736v-57.47Z"/><path stroke="#4c4e72" stroke-width="1.14942" fill="#4c4e7212" d="m1799.772 2068.966 49.771 28.735v57.471l-49.771 28.736-49.772-28.736v-57.47Z"/><path stroke="#4c4e72" stroke-width="1.14942" fill="none" d="m1899.772 2068.966 49.771 28.735v57.471l-49.771 28.736-49.772-28.736v-57.47Z"/><path stroke="#4c4e72" stroke-width="1.14942" fill="#4c4e7278" d="m1999.772 2068.966 49.771 28.735v57.471l-49.771 28.736-49.772-28.736v-57.47Z"/><path stroke="#4c4e72" stroke-width="1.14942" fill="none" d="m49.772 2155.172 49.771 28.736v57.471l-49.771 28.736L0 2241.379v-57.471ZM149.772 2155.172l49.771 28.736v57.471l-49.771 28.736L100 2241.379v-57.471ZM249.772 2155.172l49.771 28.736v57.471l-49.771 28.736L200 2241.379v-57.471ZM349.772 2155.172l49.771 28.736v57.471l-49.771 28.736L300 2241.379v-57.471ZM449.772 2155.172l49.771 28.736v57.471l-49.771 28.736L400 2241.379v-57.471ZM549.772 2155.172l49.771 28.736v57.471l-49.771 28.736L500 2241.379v-57.471ZM649.772 2155.172l49.771 28.736v57.471l-49.771 28.736L600 2241.379v-57.471Z"/><path stroke="#4c4e72" stroke-width="1.14942" fill="#4c4e72da" d="m749.772 2155.172 49.771 28.736v57.471l-49.771 28.736L700 2241.379v-57.471Z"/><path stroke="#4c4e72" stroke-width="1.14942" fill="none" d="m849.772 2155.172 49.771 28.736v57.471l-49.771 28.736L800 2241.379v-57.471ZM949.772 2155.172l49.771 28.736v57.471l-49.771 28.736L900 2241.379v-57.471ZM1049.772 2155.172l49.771 28.736v57.471l-49.771 28.736-49.772-28.736v-57.471Z"/><path stroke="#4c4e72" stroke-width="1.14942" fill="#4c4e72aa" d="m1149.772 2155.172 49.771 28.736v57.471l-49.771 28.736-49.772-28.736v-57.471Z"/><path stroke="#4c4e72" stroke-width="1.14942" fill="none" d="m1249.772 2155.172 49.771 28.736v57.471l-49.771 28.736-49.772-28.736v-57.471ZM1349.772 2155.172l49.771 28.736v57.471l-49.771 28.736-49.772-28.736v-57.471ZM1449.772 2155.172l49.771 28.736v57.471l-49.771 28.736-49.772-28.736v-57.471ZM1549.772 2155.172l49.771 28.736v57.471l-49.771 28.736-49.772-28.736v-57.471ZM1649.772 2155.172l49.771 28.736v57.471l-49.771 28.736-49.772-28.736v-57.471ZM1749.772 2155.172l49.771 28.736v57.471l-49.771 28.736-49.772-28.736v-57.471ZM1849.772 2155.172l49.771 28.736v57.471l-49.771 28.736-49.772-28.736v-57.471Z"/><path stroke="#4c4e72" stroke-width="1.14942" fill="#4c4e72b0" d="m1949.772 2155.172 49.771 28.736v57.471l-49.771 28.736-49.772-28.736v-57.471Z"/><path stroke="#4c4e72" stroke-width="1.14942" fill="#4c4e7206" d="m99.772 2241.38 49.771 28.735v57.471l-49.771 28.736L50 2327.586v-57.471Z"/><path stroke="#4c4e72" stroke-width="1.14942" fill="#4c4e72bf" d="m199.772 2241.38 49.771 28.735v57.471l-49.771 28.736L150 2327.586v-57.471Z"/><path stroke="#4c4e72" stroke-width="1.14942" fill="none" d="m299.772 2241.38 49.771 28.735v57.471l-49.771 28.736L250 2327.586v-57.471ZM399.772 2241.38l49.771 28.735v57.471l-49.771 28.736L350 2327.586v-57.471ZM499.772 2241.38l49.771 28.735v57.471l-49.771 28.736L450 2327.586v-57.471ZM599.772 2241.38l49.771 28.735v57.471l-49.771 28.736L550 2327.586v-57.471ZM699.772 2241.38l49.771 28.735v57.471l-49.771 28.736L650 2327.586v-57.471ZM799.772 2241.38l49.771 28.735v57.471l-49.771 28.736L750 2327.586v-57.471Z"/><path stroke="#4c4e72" stroke-width="1.14942" fill="#4c4e7236" d="m899.772 2241.38 49.771 28.735v57.471l-49.771 28.736L850 2327.586v-57.471Z"/><path stroke="#4c4e72" stroke-width="1.14942" fill="#4c4e7292" d="m999.772 2241.38 49.771 28.735v57.471l-49.771 28.736L950 2327.586v-57.471Z"/><path stroke="#4c4e72" stroke-width="1.14942" fill="none" d="m1099.772 2241.38 49.771 28.735v57.471l-49.771 28.736-49.772-28.736v-57.471ZM1199.772 2241.38l49.771 28.735v57.471l-49.771 28.736-49.772-28.736v-57.471ZM1299.772 2241.38l49.771 28.735v57.471l-49.771 28.736-49.772-28.736v-57.471ZM1399.772 2241.38l49.771 28.735v57.471l-49.771 28.736-49.772-28.736v-57.471Z"/><path stroke="#4c4e72" stroke-width="1.14942" fill="#4c4e72d7" d="m1499.772 2241.38 49.771 28.735v57.471l-49.771 28.736-49.772-28.736v-57.471Z"/><path stroke="#4c4e72" stroke-width="1.14942" fill="none" d="m1599.772 2241.38 49.771 28.735v57.471l-49.771 28.736-49.772-28.736v-57.471Z"/><path stroke="#4c4e72" stroke-width="1.14942" fill="#4c4e7259" d="m1699.772 2241.38 49.771 28.735v57.471l-49.771 28.736-49.772-28.736v-57.471Z"/><path stroke="#4c4e72" stroke-width="1.14942" fill="none" d="m1799.772 2241.38 49.771 28.735v57.471l-49.771 28.736-49.772-28.736v-57.471Z"/><path stroke="#4c4e72" stroke-width="1.14942" fill="#4c4e728b" d="m1899.772 2241.38 49.771 28.735v57.471l-49.771 28.736-49.772-28.736v-57.471Z"/><path stroke="#4c4e72" stroke-width="1.14942" fill="none" d="m1999.772 2241.38 49.771 28.735v57.471l-49.771 28.736-49.772-28.736v-57.471ZM49.772 2327.586l49.771 28.736v57.471l-49.771 28.736L0 2413.793v-57.471ZM149.772 2327.586l49.771 28.736v57.471l-49.771 28.736L100 2413.793v-57.471Z"/><path stroke="#4c4e72" stroke-width="1.14942" fill="#4c4e7268" d="m249.772 2327.586 49.771 28.736v57.471l-49.771 28.736L200 2413.793v-57.471Z"/><path stroke="#4c4e72" stroke-width="1.14942" fill="none" d="m349.772 2327.586 49.771 28.736v57.471l-49.771 28.736L300 2413.793v-57.471Z"/><path stroke="#4c4e72" stroke-width="1.14942" fill="#4c4e720e" d="m449.772 2327.586 49.771 28.736v57.471l-49.771 28.736L400 2413.793v-57.471Z"/><path stroke="#4c4e72" stroke-width="1.14942" fill="#4c4e72a8" d="m549.772 2327.586 49.771 28.736v57.471l-49.771 28.736L500 2413.793v-57.471Z"/><path stroke="#4c4e72" stroke-width="1.14942" fill="none" d="m649.772 2327.586 49.771 28.736v57.471l-49.771 28.736L600 2413.793v-57.471Z"/><path stroke="#4c4e72" stroke-width="1.14942" fill="#4c4e7217" d="m749.772 2327.586 49.771 28.736v57.471l-49.771 28.736L700 2413.793v-57.471Z"/><path stroke="#4c4e72" stroke-width="1.14942" fill="none" d="m849.772 2327.586 49.771 28.736v57.471l-49.771 28.736L800 2413.793v-57.471ZM949.772 2327.586l49.771 28.736v57.471l-49.771 28.736L900 2413.793v-57.471ZM1049.772 2327.586l49.771 28.736v57.471l-49.771 28.736-49.772-28.736v-57.471ZM1149.772 2327.586l49.771 28.736v57.471l-49.771 28.736-49.772-28.736v-57.471ZM1249.772 2327.586l49.771 28.736v57.471l-49.771 28.736-49.772-28.736v-57.471ZM1349.772 2327.586l49.771 28.736v57.471l-49.771 28.736-49.772-28.736v-57.471ZM1449.772 2327.586l49.771 28.736v57.471l-49.771 28.736-49.772-28.736v-57.471ZM1549.772 2327.586l49.771 28.736v57.471l-49.771 28.736-49.772-28.736v-57.471ZM1649.772 2327.586l49.771 28.736v57.471l-49.771 28.736-49.772-28.736v-57.471Z"/><path stroke="#4c4e72" stroke-width="1.14942" fill="#4c4e720a" d="m1749.772 2327.586 49.771 28.736v57.471l-49.771 28.736-49.772-28.736v-57.471Z"/><path stroke="#4c4e72" stroke-width="1.14942" fill="#4c4e72ab" d="m1849.772 2327.586 49.771 28.736v57.471l-49.771 28.736-49.772-28.736v-57.471Z"/><path stroke="#4c4e72" stroke-width="1.14942" fill="none" d="m1949.772 2327.586 49.771 28.736v57.471l-49.771 28.736-49.772-28.736v-57.471ZM99.772 2413.793l49.771 28.736V2500l-49.771 28.736L50 2500v-57.471ZM199.772 2413.793l49.771 28.736V2500l-49.771 28.736L150 2500v-57.471ZM299.772 2413.793l49.771 28.736V2500l-49.771 28.736L250 2500v-57.471ZM399.772 2413.793l49.771 28.736V2500l-49.771 28.736L350 2500v-57.471ZM499.772 2413.793l49.771 28.736V2500l-49.771 28.736L450 2500v-57.471ZM599.772 2413.793l49.771 28.736V2500l-49.771 28.736L550 2500v-57.471ZM699.772 2413.793l49.771 28.736V2500l-49.771 28.736L650 2500v-57.471ZM799.772 2413.793l49.771 28.736V2500l-49.771 28.736L750 2500v-57.471ZM899.772 2413.793l49.771 28.736V2500l-49.771 28.736L850 2500v-57.471Z"/><path stroke="#4c4e72" stroke-width="1.14942" fill="#4c4e72c7" d="m999.772 2413.793 49.771 28.736V2500l-49.771 28.736L950 2500v-57.471Z"/><path stroke="#4c4e72" stroke-width="1.14942" fill="none" d="m1099.772 2413.793 49.771 28.736V2500l-49.771 28.736L1050 2500v-57.471ZM1199.772 2413.793l49.771 28.736V2500l-49.771 28.736L1150 2500v-57.471ZM1299.772 2413.793l49.771 28.736V2500l-49.771 28.736L1250 2500v-57.471Z"/><path stroke="#4c4e72" stroke-width="1.14942" fill="#4c4e722b" d="m1399.772 2413.793 49.771 28.736V2500l-49.771 28.736L1350 2500v-57.471Z"/><path stroke="#4c4e72" stroke-width="1.14942" fill="#4c4e721f" d="m1499.772 2413.793 49.771 28.736V2500l-49.771 28.736L1450 2500v-57.471Z"/><path stroke="#4c4e72" stroke-width="1.14942" fill="#4c4e721e" d="m1599.772 2413.793 49.771 28.736V2500l-49.771 28.736L1550 2500v-57.471Z"/><path stroke="#4c4e72" stroke-width="1.14942" fill="none" d="m1699.772 2413.793 49.771 28.736V2500l-49.771 28.736L1650 2500v-57.471ZM1799.772 2413.793l49.771 28.736V2500l-49.771 28.736L1750 2500v-57.471Z"/><path stroke="#4c4e72" stroke-width="1.14942" fill="#4c4e722f" d="m1899.772 2413.793 49.771 28.736V2500l-49.771 28.736L1850 2500v-57.471Z"/><path stroke="#4c4e72" stroke-width="1.14942" fill="none" d="m1999.772 2413.793 49.771 28.736V2500l-49.771 28.736L1950 2500v-57.471ZM49.772 2500l49.771 28.736v57.47l-49.771 28.737L0 2586.207v-57.471ZM149.772 2500l49.771 28.736v57.47l-49.771 28.737L100 2586.207v-57.471ZM249.772 2500l49.771 28.736v57.47l-49.771 28.737L200 2586.207v-57.471ZM349.772 2500l49.771 28.736v57.47l-49.771 28.737L300 2586.207v-57.471ZM449.772 2500l49.771 28.736v57.47l-49.771 28.737L400 2586.207v-57.471ZM549.772 2500l49.771 28.736v57.47l-49.771 28.737L500 2586.207v-57.471ZM649.772 2500l49.771 28.736v57.47l-49.771 28.737L600 2586.207v-57.471ZM749.772 2500l49.771 28.736v57.47l-49.771 28.737L700 2586.207v-57.471Z"/><path stroke="#4c4e72" stroke-width="1.14942" fill="#4c4e724e" d="m849.772 2500 49.771 28.736v57.47l-49.771 28.737L800 2586.207v-57.471Z"/><path stroke="#4c4e72" stroke-width="1.14942" fill="none" d="m949.772 2500 49.771 28.736v57.47l-49.771 28.737L900 2586.207v-57.471ZM1049.772 2500l49.771 28.736v57.47l-49.771 28.737-49.772-28.736v-57.471ZM1149.772 2500l49.771 28.736v57.47l-49.771 28.737-49.772-28.736v-57.471ZM1249.772 2500l49.771 28.736v57.47l-49.771 28.737-49.772-28.736v-57.471ZM1349.772 2500l49.771 28.736v57.47l-49.771 28.737-49.772-28.736v-57.471ZM1449.772 2500l49.771 28.736v57.47l-49.771 28.737-49.772-28.736v-57.471ZM1549.772 2500l49.771 28.736v57.47l-49.771 28.737-49.772-28.736v-57.471Z"/><path stroke="#4c4e72" stroke-width="1.14942" fill="#4c4e7233" d="m1649.772 2500 49.771 28.736v57.47l-49.771 28.737-49.772-28.736v-57.471Z"/><path stroke="#4c4e72" stroke-width="1.14942" fill="none" d="m1749.772 2500 49.771 28.736v57.47l-49.771 28.737-49.772-28.736v-57.471ZM1849.772 2500l49.771 28.736v57.47l-49.771 28.737-49.772-28.736v-57.471ZM1949.772 2500l49.771 28.736v57.47l-49.771 28.737-49.772-28.736v-57.471ZM99.772 2586.207l49.771 28.736v57.47l-49.771 28.736L50 2672.414v-57.471ZM199.772 2586.207l49.771 28.736v57.47l-49.771 28.736L150 2672.414v-57.471ZM299.772 2586.207l49.771 28.736v57.47l-49.771 28.736L250 2672.414v-57.471ZM399.772 2586.207l49.771 28.736v57.47l-49.771 28.736L350 2672.414v-57.471ZM499.772 2586.207l49.771 28.736v57.47l-49.771 28.736L450 2672.414v-57.471ZM599.772 2586.207l49.771 28.736v57.47l-49.771 28.736L550 2672.414v-57.471Z"/><path stroke="#4c4e72" stroke-width="1.14942" fill="#4c4e7209" d="m699.772 2586.207 49.771 28.736v57.47l-49.771 28.736L650 2672.414v-57.471Z"/><path stroke="#4c4e72" stroke-width="1.14942" fill="none" d="m799.772 2586.207 49.771 28.736v57.47l-49.771 28.736L750 2672.414v-57.471ZM899.772 2586.207l49.771 28.736v57.47l-49.771 28.736L850 2672.414v-57.471ZM999.772 2586.207l49.771 28.736v57.47l-49.771 28.736L950 2672.414v-57.471ZM1099.772 2586.207l49.771 28.736v57.47l-49.771 28.736-49.772-28.735v-57.471ZM1199.772 2586.207l49.771 28.736v57.47l-49.771 28.736-49.772-28.735v-57.471ZM1299.772 2586.207l49.771 28.736v57.47l-49.771 28.736-49.772-28.735v-57.471ZM1399.772 2586.207l49.771 28.736v57.47l-49.771 28.736-49.772-28.735v-57.471ZM1499.772 2586.207l49.771 28.736v57.47l-49.771 28.736-49.772-28.735v-57.471ZM1599.772 2586.207l49.771 28.736v57.47l-49.771 28.736-49.772-28.735v-57.471Z"/><path stroke="#4c4e72" stroke-width="1.14942" fill="#4c4e7290" d="m1699.772 2586.207 49.771 28.736v57.47l-49.771 28.736-49.772-28.735v-57.471Z"/><path stroke="#4c4e72" stroke-width="1.14942" fill="none" d="m1799.772 2586.207 49.771 28.736v57.47l-49.771 28.736-49.772-28.735v-57.471ZM1899.772 2586.207l49.771 28.736v57.47l-49.771 28.736-49.772-28.735v-57.471ZM1999.772 2586.207l49.771 28.736v57.47l-49.771 28.736-49.772-28.735v-57.471ZM49.772 2672.414l49.771 28.735v57.472l-49.771 28.735L0 2758.621v-57.472Z"/><path stroke="#4c4e72" stroke-width="1.14942" fill="#4c4e726f" d="m149.772 2672.414 49.771 28.735v57.472l-49.771 28.735L100 2758.621v-57.472Z"/><path stroke="#4c4e72" stroke-width="1.14942" fill="none" d="m249.772 2672.414 49.771 28.735v57.472l-49.771 28.735L200 2758.621v-57.472ZM349.772 2672.414l49.771 28.735v57.472l-49.771 28.735L300 2758.621v-57.472ZM449.772 2672.414l49.771 28.735v57.472l-49.771 28.735L400 2758.621v-57.472ZM549.772 2672.414l49.771 28.735v57.472l-49.771 28.735L500 2758.621v-57.472ZM649.772 2672.414l49.771 28.735v57.472l-49.771 28.735L600 2758.621v-57.472Z"/><path stroke="#4c4e72" stroke-width="1.14942" fill="#4c4e72e2" d="m749.772 2672.414 49.771 28.735v57.472l-49.771 28.735L700 2758.621v-57.472Z"/><path stroke="#4c4e72" stroke-width="1.14942" fill="#4c4e7298" d="m849.772 2672.414 49.771 28.735v57.472l-49.771 28.735L800 2758.621v-57.472Z"/><path stroke="#4c4e72" stroke-width="1.14942" fill="none" d="m949.772 2672.414 49.771 28.735v57.472l-49.771 28.735L900 2758.621v-57.472Z"/><path stroke="#4c4e72" stroke-width="1.14942" fill="#4c4e723f" d="m1049.772 2672.414 49.771 28.735v57.472l-49.771 28.735-49.772-28.735v-57.472Z"/><path stroke="#4c4e72" stroke-width="1.14942" fill="#4c4e7228" d="m1149.772 2672.414 49.771 28.735v57.472l-49.771 28.735-49.772-28.735v-57.472Z"/><path stroke="#4c4e72" stroke-width="1.14942" fill="none" d="m1249.772 2672.414 49.771 28.735v57.472l-49.771 28.735-49.772-28.735v-57.472ZM1349.772 2672.414l49.771 28.735v57.472l-49.771 28.735-49.772-28.735v-57.472ZM1449.772 2672.414l49.771 28.735v57.472l-49.771 28.735-49.772-28.735v-57.472ZM1549.772 2672.414l49.771 28.735v57.472l-49.771 28.735-49.772-28.735v-57.472ZM1649.772 2672.414l49.771 28.735v57.472l-49.771 28.735-49.772-28.735v-57.472ZM1749.772 2672.414l49.771 28.735v57.472l-49.771 28.735-49.772-28.735v-57.472Z"/><path stroke="#4c4e72" stroke-width="1.14942" fill="#4c4e7236" d="m1849.772 2672.414 49.771 28.735v57.472l-49.771 28.735-49.772-28.735v-57.472Z"/><path stroke="#4c4e72" stroke-width="1.14942" fill="none" d="m1949.772 2672.414 49.771 28.735v57.472l-49.771 28.735-49.772-28.735v-57.472ZM99.772 2758.62l49.771 28.736v57.472l-49.771 28.735L50 2844.828v-57.472Z"/><path stroke="#4c4e72" stroke-width="1.14942" fill="#4c4e72dd" d="m199.772 2758.62 49.771 28.736v57.472l-49.771 28.735L150 2844.828v-57.472Z"/><path stroke="#4c4e72" stroke-width="1.14942" fill="#4c4e72f9" d="m299.772 2758.62 49.771 28.736v57.472l-49.771 28.735L250 2844.828v-57.472Z"/><path stroke="#4c4e72" stroke-width="1.14942" fill="none" d="m399.772 2758.62 49.771 28.736v57.472l-49.771 28.735L350 2844.828v-57.472Z"/><path stroke="#4c4e72" stroke-width="1.14942" fill="#4c4e7217" d="m499.772 2758.62 49.771 28.736v57.472l-49.771 28.735L450 2844.828v-57.472Z"/><path stroke="#4c4e72" stroke-width="1.14942" fill="none" d="m599.772 2758.62 49.771 28.736v57.472l-49.771 28.735L550 2844.828v-57.472ZM699.772 2758.62l49.771 28.736v57.472l-49.771 28.735L650 2844.828v-57.472Z"/><path stroke="#4c4e72" stroke-width="1.14942" fill="#4c4e722a" d="m799.772 2758.62 49.771 28.736v57.472l-49.771 28.735L750 2844.828v-57.472Z"/><path stroke="#4c4e72" stroke-width="1.14942" fill="#4c4e7278" d="m899.772 2758.62 49.771 28.736v57.472l-49.771 28.735L850 2844.828v-57.472Z"/><path stroke="#4c4e72" stroke-width="1.14942" fill="none" d="m999.772 2758.62 49.771 28.736v57.472l-49.771 28.735L950 2844.828v-57.472ZM1099.772 2758.62l49.771 28.736v57.472l-49.771 28.735-49.772-28.735v-57.472ZM1199.772 2758.62l49.771 28.736v57.472l-49.771 28.735-49.772-28.735v-57.472ZM1299.772 2758.62l49.771 28.736v57.472l-49.771 28.735-49.772-28.735v-57.472ZM1399.772 2758.62l49.771 28.736v57.472l-49.771 28.735-49.772-28.735v-57.472Z"/><path stroke="#4c4e72" stroke-width="1.14942" fill="#4c4e72f6" d="m1499.772 2758.62 49.771 28.736v57.472l-49.771 28.735-49.772-28.735v-57.472Z"/><path stroke="#4c4e72" stroke-width="1.14942" fill="none" d="m1599.772 2758.62 49.771 28.736v57.472l-49.771 28.735-49.772-28.735v-57.472Z"/><path stroke="#4c4e72" stroke-width="1.14942" fill="#4c4e72b4" d="m1699.772 2758.62 49.771 28.736v57.472l-49.771 28.735-49.772-28.735v-57.472Z"/><path stroke="#4c4e72" stroke-width="1.14942" fill="none" d="m1799.772 2758.62 49.771 28.736v57.472l-49.771 28.735-49.772-28.735v-57.472ZM1899.772 2758.62l49.771 28.736v57.472l-49.771 28.735-49.772-28.735v-57.472ZM1999.772 2758.62l49.771 28.736v57.472l-49.771 28.735-49.772-28.735v-57.472ZM49.772 2844.828l49.771 28.735v57.471l-49.771 28.736L0 2931.034v-57.47Z"/><path stroke="#4c4e72" stroke-width="1.14942" fill="#4c4e7212" d="m149.772 2844.828 49.771 28.735v57.471l-49.771 28.736L100 2931.034v-57.47Z"/><path stroke="#4c4e72" stroke-width="1.14942" fill="none" d="m249.772 2844.828 49.771 28.735v57.471l-49.771 28.736L200 2931.034v-57.47Z"/><path stroke="#4c4e72" stroke-width="1.14942" fill="#4c4e7290" d="m349.772 2844.828 49.771 28.735v57.471l-49.771 28.736L300 2931.034v-57.47Z"/><path stroke="#4c4e72" stroke-width="1.14942" fill="none" d="m449.772 2844.828 49.771 28.735v57.471l-49.771 28.736L400 2931.034v-57.47ZM549.772 2844.828l49.771 28.735v57.471l-49.771 28.736L500 2931.034v-57.47ZM649.772 2844.828l49.771 28.735v57.471l-49.771 28.736L600 2931.034v-57.47ZM749.772 2844.828l49.771 28.735v57.471l-49.771 28.736L700 2931.034v-57.47ZM849.772 2844.828l49.771 28.735v57.471l-49.771 28.736L800 2931.034v-57.47ZM949.772 2844.828l49.771 28.735v57.471l-49.771 28.736L900 2931.034v-57.47ZM1049.772 2844.828l49.771 28.735v57.471l-49.771 28.736-49.772-28.736v-57.47ZM1149.772 2844.828l49.771 28.735v57.471l-49.771 28.736-49.772-28.736v-57.47Z"/><path stroke="#4c4e72" stroke-width="1.14942" fill="#4c4e7291" d="m1249.772 2844.828 49.771 28.735v57.471l-49.771 28.736-49.772-28.736v-57.47Z"/><path stroke="#4c4e72" stroke-width="1.14942" fill="none" d="m1349.772 2844.828 49.771 28.735v57.471l-49.771 28.736-49.772-28.736v-57.47Z"/><path stroke="#4c4e72" stroke-width="1.14942" fill="#4c4e72cc" d="m1449.772 2844.828 49.771 28.735v57.471l-49.771 28.736-49.772-28.736v-57.47Z"/><path stroke="#4c4e72" stroke-width="1.14942" fill="none" d="m1549.772 2844.828 49.771 28.735v57.471l-49.771 28.736-49.772-28.736v-57.47ZM1649.772 2844.828l49.771 28.735v57.471l-49.771 28.736-49.772-28.736v-57.47ZM1749.772 2844.828l49.771 28.735v57.471l-49.771 28.736-49.772-28.736v-57.47ZM1849.772 2844.828l49.771 28.735v57.471l-49.771 28.736-49.772-28.736v-57.47ZM1949.772 2844.828l49.771 28.735v57.471l-49.771 28.736-49.772-28.736v-57.47ZM99.772 2931.034l49.771 28.736v57.471l-49.771 28.736L50 3017.241v-57.47Z"/><path stroke="#4c4e72" stroke-width="1.14942" fill="#4c4e72c1" d="m199.772 2931.034 49.771 28.736v57.471l-49.771 28.736L150 3017.241v-57.47Z"/><path stroke="#4c4e72" stroke-width="1.14942" fill="none" d="m299.772 2931.034 49.771 28.736v57.471l-49.771 28.736L250 3017.241v-57.47Z"/><path stroke="#4c4e72" stroke-width="1.14942" fill="#4c4e721f" d="m399.772 2931.034 49.771 28.736v57.471l-49.771 28.736L350 3017.241v-57.47Z"/><path stroke="#4c4e72" stroke-width="1.14942" fill="#4c4e7278" d="m499.772 2931.034 49.771 28.736v57.471l-49.771 28.736L450 3017.241v-57.47Z"/><path stroke="#4c4e72" stroke-width="1.14942" fill="none" d="m599.772 2931.034 49.771 28.736v57.471l-49.771 28.736L550 3017.241v-57.47ZM699.772 2931.034l49.771 28.736v57.471l-49.771 28.736L650 3017.241v-57.47ZM799.772 2931.034l49.771 28.736v57.471l-49.771 28.736L750 3017.241v-57.47Z"/><path stroke="#4c4e72" stroke-width="1.14942" fill="#4c4e72f6" d="m899.772 2931.034 49.771 28.736v57.471l-49.771 28.736L850 3017.241v-57.47Z"/><path stroke="#4c4e72" stroke-width="1.14942" fill="none" d="m999.772 2931.034 49.771 28.736v57.471l-49.771 28.736L950 3017.241v-57.47ZM1099.772 2931.034l49.771 28.736v57.471l-49.771 28.736-49.772-28.736v-57.47Z"/><path stroke="#4c4e72" stroke-width="1.14942" fill="#4c4e7219" d="m1199.772 2931.034 49.771 28.736v57.471l-49.771 28.736-49.772-28.736v-57.47Z"/><path stroke="#4c4e72" stroke-width="1.14942" fill="#4c4e725d" d="m1299.772 2931.034 49.771 28.736v57.471l-49.771 28.736-49.772-28.736v-57.47Z"/><path stroke="#4c4e72" stroke-width="1.14942" fill="#4c4e72a8" d="m1399.772 2931.034 49.771 28.736v57.471l-49.771 28.736-49.772-28.736v-57.47Z"/><path stroke="#4c4e72" stroke-width="1.14942" fill="#4c4e721c" d="m1499.772 2931.034 49.771 28.736v57.471l-49.771 28.736-49.772-28.736v-57.47Z"/><path stroke="#4c4e72" stroke-width="1.14942" fill="none" d="m1599.772 2931.034 49.771 28.736v57.471l-49.771 28.736-49.772-28.736v-57.47ZM1699.772 2931.034l49.771 28.736v57.471l-49.771 28.736-49.772-28.736v-57.47ZM1799.772 2931.034l49.771 28.736v57.471l-49.771 28.736-49.772-28.736v-57.47ZM1899.772 2931.034l49.771 28.736v57.471l-49.771 28.736-49.772-28.736v-57.47ZM1999.772 2931.034l49.771 28.736v57.471l-49.771 28.736-49.772-28.736v-57.47Z"/></g><defs><radialGradient id="a"><stop offset="0" stop-color="#fff"/><stop offset="1" stop-color="#fff" stop-opacity="0"/></radialGradient></defs></svg>